<svg width="864" height="264" viewBox="0 0 864 264" fill="none" xmlns="http://www.w3.org/2000/svg">
<g filter="url(#filter0_dddd)">
<rect x="32" y="8" width="800" height="200" rx="24" fill="white"/>
<g opacity="0.35">
<mask id="mask0" mask-type="alpha" maskUnits="userSpaceOnUse" x="32" y="8" width="800" height="200">
<rect x="32" y="8" width="800" height="200" fill="url(#paint0_radial)"/>
</mask>
<g mask="url(#mask0)">
<path d="M837.502 -16.3351C833.836 -16.0544 830.166 -15.8104 826.494 -15.6031C821.289 -15.3197 816.084 -15.0724 810.874 -14.8533C803.879 -14.5592 796.884 -14.3113 789.884 -14.0814C780.901 -13.7965 771.913 -13.5482 762.931 -13.3188M762.931 -13.3145C751.829 -13.0374 740.722 -12.8065 729.609 -12.585C716.343 -12.328 703.077 -12.1033 689.809 -11.911M689.804 -11.9071C674.458 -11.6846 659.107 -11.481 643.761 -11.3135C626.543 -11.1192 609.325 -10.9614 592.115 -10.8226M592.113 -10.8271C573.387 -10.6781 554.665 -10.5578 535.939 -10.474C516.191 -10.381 496.44 -10.3065 476.692 -10.2695M356.013 -10.3634C396.239 -10.2199 436.466 -10.1891 476.692 -10.2709M244.396 -11.0763C262.348 -10.9088 280.298 -10.7701 298.25 -10.6493C317.505 -10.5285 336.76 -10.4351 356.015 -10.361M153.023 -12.267C167.25 -12.0264 181.478 -11.8131 195.707 -11.6281C211.937 -11.4148 228.167 -11.239 244.397 -11.0817M86.959 -13.7269C96.8921 -13.4501 106.826 -13.2011 116.761 -12.9799C128.847 -12.7121 140.934 -12.4817 153.023 -12.2694M45.3661 -15.2681C51.3528 -14.9745 57.3429 -14.7261 63.3341 -14.506C71.2074 -14.2124 79.0835 -13.9646 86.9595 -13.7352M23.5399 -16.7149C26.4756 -16.4315 29.419 -16.2124 32.3641 -16.0112C36.695 -15.7191 41.0286 -15.4814 45.365 -15.2623M23.5399 -16.7149C22.6515 -7.93207 22.1277 0.87709 22.0135 9.70375M23.5399 -16.7149C21.7006 -16.8907 19.8612 -17.1025 18.0373 -17.3835C17.0155 -17.5418 15.9916 -17.7171 15 -17.9985C15.5749 -9.56435 16.4847 -1.15079 17.7277 7.22656C19.0802 16.1369 20.7895 25.0018 22.8524 33.8044C22.2079 25.7852 21.941 17.7401 22.0135 9.70375M23.5393 -16.709C25.0053 -6.96007 26.8978 2.73629 29.1736 12.3625M23.5393 -16.709L29.1736 12.3625M23.5393 -16.709C22.6509 -7.92523 22.1272 0.884881 22.0135 9.70375M23.5393 -16.709L22.0135 9.70375M23.5393 -16.709C26.4756 -16.4198 29.4201 -16.2002 32.3652 -15.9986C36.6961 -15.7088 41.0302 -15.4722 45.365 -15.2525C43.1754 -5.17 41.3816 4.97388 40.0623 15.1796C38.9054 24.3939 38.1368 33.634 37.8304 42.9004M23.5393 -16.709L37.8304 42.9004M29.1736 12.3625C31.6388 22.6379 34.5378 32.8179 37.8304 42.9004M29.1736 12.3625L37.8304 42.9004M29.1736 12.3625C31.6399 22.6379 34.5378 32.8179 37.8304 42.9004M22.0135 9.70375C21.9405 17.7508 22.2084 25.7891 22.8524 33.8093C24.6248 35.4592 26.6145 36.8981 28.7135 38.2144C31.6053 39.9869 34.6778 41.514 37.8304 42.9004M22.0135 9.70375L37.8304 42.9004M45.3655 -15.2584C48.2985 -4.03784 51.696 7.07801 55.5009 18.0887C59.5913 29.8089 64.1374 41.3893 69.0925 52.829M45.3655 -15.2584L69.0925 52.829M45.3655 -15.2584C43.1748 -5.17733 41.3833 4.97341 40.0634 15.1777C38.906 24.391 38.1373 33.6306 37.8304 42.8965C42.1223 44.7548 46.5471 46.3505 51.0328 47.7968C56.9734 49.6994 63.0085 51.3389 69.0925 52.829M45.3655 -15.2584C48.2985 -4.03784 51.6965 7.07758 55.5031 18.0878C59.5935 29.7992 64.1379 41.3791 69.0931 52.8281L45.3655 -15.2584ZM45.3655 -15.2584C51.3528 -14.9604 57.3429 -14.7154 63.3347 -14.4963C71.208 -14.1983 79.0829 -13.9528 86.9601 -13.7249C82.9746 -2.23266 79.3706 9.35703 76.2295 21.0509C73.4404 31.5703 71.029 42.1607 69.0925 52.829M86.9584 -13.7201C91.8296 -1.0138 97.1449 11.561 102.85 23.9868C108.904 37.0958 115.385 50.0295 122.254 62.8147M86.9584 -13.7201L122.254 62.8147M86.9584 -13.7201C82.974 -2.23072 79.3712 9.3541 76.2295 21.0534C73.4404 31.5703 71.0279 42.1661 69.092 52.832C76.89 54.7321 84.7606 56.378 92.6663 57.8754C102.485 59.7235 112.356 61.3436 122.254 62.8147M86.9584 -13.7201C91.829 -1.0138 97.146 11.5606 102.851 23.9864C108.905 37.0954 115.385 50.0295 122.254 62.8147M86.9584 -13.7201C96.8918 -13.4401 106.826 -13.1951 116.761 -12.9677C128.847 -12.7048 140.934 -12.4686 153.023 -12.2582C146.935 0.649176 141.161 13.671 135.768 26.8146C130.921 38.7062 126.388 50.704 122.254 62.8147M200.194 71.6735C191.491 57.7536 183.128 43.6691 175.11 29.4296C167.404 15.6783 160.029 1.77795 153.024 -12.2626C146.936 0.640893 141.162 13.6666 135.771 26.8146C130.923 38.7115 126.389 50.6961 122.255 62.803C134.176 64.5526 146.133 66.0837 158.114 67.4656C172.115 69.058 186.146 70.44 200.194 71.6735ZM200.194 71.6735C191.491 57.7537 183.128 43.6692 175.111 29.4296C167.405 15.6783 160.03 1.77795 153.023 -12.2626C167.25 -12.0177 181.479 -11.8073 195.709 -11.6237C211.938 -11.4051 228.167 -11.2215 244.398 -11.0725C236.26 3.09909 228.333 17.3671 220.65 31.731C213.607 44.9573 206.771 58.2631 200.194 71.6735ZM244.397 -11.07C253.277 3.94601 262.402 18.8475 271.767 33.6296C281.251 48.5652 290.977 63.3791 300.941 78.0668M244.397 -11.07L300.941 78.0668M244.397 -11.07C236.26 3.0986 228.333 17.3637 220.653 31.7417C213.607 44.9578 206.771 58.2606 200.194 71.6774C216.136 73.0584 232.099 74.2388 248.077 75.2697C265.685 76.38 283.309 77.3067 300.941 78.0668M244.397 -11.07C253.28 3.94524 262.405 18.8472 271.769 33.6301C281.253 48.5653 290.978 63.379 300.941 78.0668M244.397 -11.07C262.348 -10.8947 280.299 -10.7545 298.25 -10.641C317.506 -10.5188 336.76 -10.4224 356.015 -10.3527M300.941 78.0668C309.685 63.6759 318.511 49.3238 327.418 35.0112C336.866 19.8482 346.398 4.72674 356.015 -10.3527M356.015 -10.3527C365.962 5.09257 376.017 20.4835 386.18 35.818C396.16 50.8597 406.247 65.8455 416.439 80.7743M356.015 -10.3527L416.439 80.7743M356.015 -10.3527C346.401 4.72897 336.869 19.8519 327.418 35.0145C318.507 49.3266 309.682 63.6803 300.942 78.0751C319.811 78.8703 338.69 79.4814 357.574 79.9358C377.192 80.3902 396.815 80.6694 416.439 80.7743M356.015 -10.3527C365.965 5.09169 376.021 20.4826 386.183 35.818C396.161 50.8601 406.247 65.8459 416.439 80.7743M356.015 -10.3527C376.043 -10.2831 396.068 -10.2388 416.1 -10.2213C436.297 -10.2125 456.496 -10.2213 476.694 -10.2651C466.649 5.18899 456.537 20.6086 446.358 35.9933C436.454 50.9567 426.481 65.8832 416.439 80.7743M592.112 -10.811C600.733 3.66055 609.177 18.2022 617.418 32.8403C625.035 46.3893 632.459 60.0232 639.687 73.7387C622.793 74.9795 605.877 76.0284 588.952 76.9195C570.595 77.8604 552.228 78.6266 533.853 79.218M592.112 -10.811L533.853 79.218M592.112 -10.811C582.841 4.38469 573.358 19.4778 563.666 34.4658C553.935 49.4906 543.997 64.4094 533.853 79.218M592.112 -10.811C573.386 -10.6625 554.664 -10.549 535.937 -10.4526C516.191 -10.3654 496.438 -10.2953 476.692 -10.2607C486.539 4.98437 496.348 20.2485 506.119 35.5317C515.404 50.0738 524.649 64.6359 533.853 79.218M592.112 -10.811C582.84 4.38152 573.358 19.4715 563.666 34.4565C553.937 49.4856 543.999 64.4073 533.853 79.218M689.81 -11.8993C696.486 1.37671 702.866 14.7667 708.9 28.2784C714.352 40.5484 719.519 52.9148 724.312 65.3946C711.25 67.0649 698.144 68.5346 685.028 69.8377C669.934 71.3156 654.825 72.6012 639.693 73.7295M689.81 -11.8993L639.693 73.7295M689.81 -11.8993C682.234 2.4512 674.336 16.6657 666.118 30.7356C657.625 45.2172 648.814 59.5512 639.693 73.7295M689.81 -11.8993C674.458 -11.6719 659.107 -11.4708 643.761 -11.3047C626.543 -11.1124 609.325 -10.9459 592.115 -10.8149C600.738 3.6503 609.182 18.1949 617.424 32.8349C625.033 46.3822 632.467 60.0074 639.693 73.7295M689.81 -11.8993C682.235 2.45217 674.334 16.6667 666.113 30.7356C657.623 45.2182 648.815 59.5523 639.693 73.7295M689.81 -11.8993C703.08 -12.1009 716.345 -12.3201 729.616 -12.5738C740.723 -12.7929 751.83 -13.0291 762.932 -13.3091M689.81 -11.8993C696.486 1.37232 702.866 14.7662 708.905 28.2735C714.352 40.5474 719.519 52.9172 724.312 65.4009M762.932 -13.3091C767.472 -1.42966 771.65 10.5637 775.373 22.6623C778.695 33.5527 781.649 44.5303 784.141 55.5955C775.252 57.4693 766.297 59.1065 757.32 60.5946C746.356 62.3978 735.348 63.9741 724.312 65.4009M762.932 -13.3091L724.312 65.4009M762.932 -13.3091C757.48 -0.212747 751.599 12.7434 745.34 25.551C738.735 38.9979 731.707 52.2778 724.312 65.4009M810.874 -14.8406C813.51 -4.38553 815.75 6.14845 817.512 16.7613C819.061 26.314 820.219 35.9184 820.911 45.5587C815.744 47.4433 810.468 49.0644 805.137 50.5364C798.208 52.4385 791.196 54.0947 784.13 55.5931C789.599 43.7799 794.655 31.8177 799.262 19.706M810.874 -14.8406C807.448 -3.21098 803.555 8.30425 799.262 19.706M810.874 -14.8406C803.879 -14.5513 796.885 -14.2971 789.884 -14.0692C780.902 -13.78 771.914 -13.5346 762.932 -13.3067C767.472 -1.42334 771.65 10.5569 775.373 22.6594C778.695 33.5527 781.649 44.5337 784.136 55.5931C789.599 43.7799 794.655 31.8177 799.262 19.706M837.503 -16.3229C838.689 -7.19916 839.501 1.95962 839.88 11.1359C840.193 19.4873 840.144 27.8392 839.699 36.1823C837.344 37.9105 834.791 39.4016 832.161 40.7442C828.532 42.5776 824.754 44.1392 820.905 45.5601M837.503 -16.3229L820.905 45.5601M837.503 -16.3229C835.691 -6.18141 833.44 3.88943 830.788 13.8906C827.928 24.5493 824.617 35.1119 820.905 45.5601M837.503 -16.3229C833.835 -16.0336 830.162 -15.8052 826.495 -15.5949C821.284 -15.2969 816.079 -15.0597 810.869 -14.8318C813.504 -4.37432 815.75 6.1528 817.507 16.7681C819.061 26.3213 820.219 35.9188 820.905 45.5601M819.511 94.0046C820.548 86.4752 821.169 78.9117 821.432 71.3229C821.69 62.7285 821.482 54.1341 820.911 45.5568C824.76 44.1368 828.532 42.5649 832.161 40.7398C834.802 39.3875 837.355 37.9008 839.699 36.1765M819.511 94.0046L839.699 36.1765M819.511 94.0046C823.722 84.3964 827.571 74.661 831.008 64.8161C834.28 55.3593 837.196 45.81 839.699 36.1765M819.511 94.0046C822.481 91.5537 825.276 88.9256 827.801 86.1031C829.849 83.7623 831.716 81.3032 833.347 78.7174C834.994 72.0918 836.317 65.416 837.366 58.6974C838.502 51.2187 839.26 43.7059 839.699 36.1765M839.699 36.1765C840.155 27.8348 840.199 19.4844 839.891 11.1339C839.499 1.95706 838.702 -7.20269 837.503 -16.3244C839.908 -16.5264 842.313 -16.7373 844.723 -17.0183C846.156 -17.2023 847.583 -17.3859 849 -17.6669M839.699 36.1765C842.053 27.0347 844.033 17.8211 845.634 8.55207C847.115 -0.148708 848.238 -8.89353 849 -17.6669M791.603 110.921C791.317 102.284 790.549 93.6642 789.434 85.0781C788.111 75.1908 786.299 65.3624 784.136 55.6013C791.196 54.099 798.208 52.4458 805.137 50.5403C810.462 49.0629 815.744 47.4433 820.911 45.5548M791.603 110.921L820.911 45.5548M791.603 110.921C797.422 100.153 802.827 89.2131 807.811 78.1204C812.593 67.4024 816.974 56.5412 820.911 45.5548M791.603 110.921C797.137 108.311 802.534 105.474 807.69 102.326C811.824 99.7746 815.794 97.0301 819.511 94.0085C820.554 86.4796 821.169 78.9093 821.432 71.3302C821.685 62.7271 821.487 54.1326 820.911 45.5548M744.127 128.186C741.788 118.322 739.037 108.54 736.001 98.8255C732.46 87.5947 728.528 76.4555 724.306 65.3995C735.342 63.9746 746.35 62.3998 757.315 60.6005C766.292 59.1089 775.247 57.4761 784.13 55.6018M744.127 128.186L784.13 55.6018M744.127 128.186C751.71 116.334 758.888 104.281 765.649 92.0436M744.127 128.186L765.649 92.0436M744.127 128.186C753.054 125.603 761.905 122.787 770.591 119.613C777.728 116.988 784.762 114.122 791.597 110.923C791.306 102.283 790.549 93.6686 789.429 85.0869C788.094 75.1976 786.299 65.3664 784.13 55.6018M784.13 55.6018C778.393 67.9161 772.221 80.0629 765.649 92.0436M784.13 55.6018L765.649 92.0436M784.13 55.6018C778.39 67.9134 772.227 80.0664 765.649 92.0436M673.827 143.936C668.951 132.869 663.834 121.885 658.542 110.974C652.469 98.4764 646.161 86.0691 639.687 73.7363C654.819 72.6031 669.929 71.3209 685.022 69.8406C698.139 68.5336 711.245 67.0775 724.317 65.3985M673.827 143.936L724.317 65.3985M673.827 143.936C683.012 131.231 691.83 118.32 700.275 105.217C708.669 92.128 716.686 78.8507 724.317 65.3985M673.827 143.936C686.587 141.702 699.286 139.213 711.892 136.384C722.725 133.936 733.481 131.231 744.127 128.187M724.317 65.3985C728.528 76.4574 732.454 87.5908 736.001 98.8318C739.037 108.542 741.788 118.32 744.127 128.187M744.127 128.187C746.076 136.523 747.74 144.905 748.975 153.343C749.974 160.339 750.682 167.358 750.957 174.4C742.518 178.445 733.865 182.12 725.075 185.495C714.89 189.384 704.524 192.877 694.026 196.071M744.127 128.187L694.026 196.071M744.127 128.187C736.502 140.05 728.475 151.705 720.057 163.138C711.755 174.344 703.086 185.33 694.026 196.071M744.127 128.187C733.486 131.231 722.731 133.935 711.898 136.388C699.286 139.211 686.587 141.703 673.832 143.943C677.95 153.328 681.898 162.783 685.588 172.318C688.618 180.172 691.457 188.082 694.026 196.071M581.59 155.925C574.164 143.806 566.696 131.709 559.185 119.632C550.782 106.139 542.338 92.6659 533.854 79.2126C552.229 78.622 570.597 77.8547 588.954 76.9108C605.877 76.0148 622.793 74.9707 639.687 73.7295M581.59 155.925L639.687 73.7295M581.59 155.925C591.779 142.747 601.655 129.381 611.241 115.851C621.033 101.976 630.516 87.9332 639.687 73.7295M581.59 155.925C597.834 154.42 614.036 152.637 630.189 150.54C644.793 148.625 659.349 146.446 673.832 143.931C668.957 132.867 663.84 121.884 658.542 110.968C652.469 98.473 646.166 86.0681 639.687 73.7295M473.701 162.033C464.322 149.15 455.049 136.206 445.884 123.203C435.964 109.117 426.149 94.9728 416.439 80.7714M473.701 162.033L533.856 79.2078M473.701 162.033C483.862 148.852 493.804 135.55 503.569 122.132M473.701 162.033L503.569 122.132M473.701 162.033C492.149 161.583 510.581 160.855 529.001 159.815C546.557 158.808 564.092 157.523 581.592 155.927C574.168 143.807 566.698 131.71 559.182 119.635C550.786 106.137 542.344 92.6605 533.856 79.2078M473.701 162.033C483.857 148.851 493.814 135.55 503.569 122.132M416.439 80.7714C436.225 80.8615 456.011 80.7797 475.792 80.526M416.439 80.7714C426.144 94.9738 435.957 109.118 445.878 123.202C455.047 136.206 464.321 149.15 473.701 162.036C454.885 162.469 436.057 162.608 417.23 162.445C398.546 162.274 379.867 161.805 361.202 161.038C370.137 148.329 379.005 135.584 387.805 122.802C397.414 108.826 406.959 94.816 416.439 80.7714ZM475.792 80.526C495.151 80.2585 514.506 79.8191 533.856 79.2078M475.792 80.526C495.151 80.2639 514.506 79.8266 533.856 79.2151C524.652 64.6317 515.405 50.0694 506.117 35.5283C496.352 20.243 486.544 4.97894 476.694 -10.2636C466.651 5.19036 456.539 20.6093 446.358 35.9919C436.454 50.9573 426.481 65.8864 416.439 80.7787C436.225 80.8664 456.012 80.788 475.792 80.526ZM533.856 79.2078C523.961 93.6261 513.864 107.936 503.569 122.132M533.856 79.2078L503.569 122.132M361.2 161.042C350.914 147.817 340.874 134.445 331.05 120.934C320.777 106.783 310.744 92.4853 300.939 78.0727M361.2 161.042L300.939 78.0727M361.2 161.042C370.134 148.332 379.001 135.586 387.801 122.802C397.413 108.83 406.958 94.8211 416.436 80.7767C396.812 80.6744 377.19 80.3958 357.572 79.9411C338.687 79.4945 319.809 78.8717 300.939 78.0727M361.2 161.042C350.914 147.817 340.873 134.445 331.048 120.942C320.78 106.781 310.743 92.49 300.939 78.0727M361.2 161.042C343.182 160.28 325.181 159.239 307.206 157.888C290.323 156.593 273.47 155.036 256.656 153.151C263.418 141.3 270.27 129.49 277.214 117.722C285.033 104.456 292.948 91.2484 300.939 78.0727M300.939 78.0727C292.943 91.2456 285.035 104.459 277.213 117.714C270.276 129.487 263.416 141.293 256.657 153.156M300.939 78.0727C283.306 77.3072 265.684 76.3844 248.075 75.2648C232.097 74.2437 216.135 73.0589 200.191 71.6755M256.657 153.156C246.659 140.058 236.982 126.77 227.632 113.301C218.153 99.6 209.004 85.7217 200.191 71.6755M256.657 153.156L200.191 71.6755M256.657 153.156C246.658 140.058 236.98 126.77 227.63 113.301C218.152 99.5999 209.004 85.7217 200.191 71.6755M256.657 153.156C241.282 151.403 225.948 149.394 210.673 147.064C197.064 144.956 183.508 142.594 170.032 139.901C174.191 129.157 178.641 118.496 183.299 107.908C188.678 95.7401 194.331 83.6708 200.191 71.6755M170.033 139.902C161.246 127.397 152.84 114.685 144.822 101.78C136.903 88.9718 129.378 75.9752 122.255 62.8045M170.033 139.902L122.255 62.8045M170.033 139.902C174.191 129.153 178.64 118.495 183.298 107.904C188.677 95.7382 194.332 83.6722 200.192 71.672C186.144 70.4454 172.114 69.0532 158.113 67.4618C146.131 66.0861 134.174 64.5532 122.255 62.8045M170.033 139.902C161.246 127.397 152.839 114.685 144.821 101.78C136.9 88.9729 129.375 75.9762 122.255 62.8045M170.033 139.902C158.325 137.532 146.685 134.913 135.149 131.954C125.365 129.427 115.664 126.65 106.098 123.526M122.255 62.8045C118.633 73.5035 115.326 84.2853 112.436 95.1499C109.969 104.539 107.817 113.995 106.098 123.526M106.098 123.526C99.0019 111.953 92.3137 100.187 86.0432 88.2443M106.098 123.526L86.0432 88.2443M106.098 123.526C107.816 114 109.968 104.541 112.435 95.149C115.324 84.279 118.632 73.501 122.255 62.8064C112.355 61.3455 102.485 59.7259 92.6669 57.8725C84.7606 56.378 76.8906 54.7253 69.0914 52.83M106.098 123.526L69.0914 52.83M106.098 123.526C98.1634 120.913 90.3301 118.057 82.6693 114.86C76.4349 112.23 70.3257 109.383 64.4273 106.202M106.098 123.526L64.4273 106.202M86.0432 88.2443C79.974 76.5981 74.3106 64.7937 69.0914 52.83M86.0432 88.2443L69.0914 52.83M69.0914 52.83C67.4141 62.264 66.1095 71.7392 65.2849 81.2652C64.598 89.5635 64.2757 97.8788 64.4273 106.202M69.0914 52.83L64.4273 106.202M64.4273 106.202C59.0774 95.7477 54.1309 85.1344 49.5954 74.381C45.2661 64.0038 41.3328 53.5089 37.8293 42.896M64.4273 106.202L37.8293 42.896M64.4273 106.202C64.2757 97.8769 64.5969 89.5601 65.2827 81.2603C66.1084 71.7402 67.413 62.263 69.0914 52.8276C63.0085 51.3389 56.9723 49.6989 51.0322 47.7988C46.5476 46.3525 42.1212 44.7543 37.8293 42.896M64.4273 106.202C59.6906 103.612 55.1045 100.821 50.7681 97.7342C47.2965 95.2283 44.0044 92.5456 40.9786 89.619M64.4273 106.202L40.9786 89.619M37.8293 42.896C37.5883 51.1792 37.7184 59.4542 38.2861 67.7208C38.8209 75.0535 39.7005 82.3613 40.9786 89.619M37.8293 42.896L40.9786 89.619M40.9786 89.619C37.1382 80.3308 33.6667 70.9258 30.5704 61.4215C27.6321 52.3003 25.0575 43.09 22.8513 33.8079M40.9786 89.619L22.8513 33.8079M40.9786 89.619C39.7005 82.3643 38.8209 75.0588 38.2861 67.7193C37.7168 59.4571 37.5883 51.1782 37.8299 42.8989C34.6783 41.5111 31.6053 39.9869 28.7119 38.2095C26.6145 36.9059 24.6237 35.4587 22.8513 33.8079M40.9786 89.619C38.5343 87.2319 36.2826 84.6924 34.2836 81.9917C32.6312 79.7381 31.1709 77.3783 29.9148 74.9318C28.2128 68.5173 26.7848 62.0481 25.6339 55.538C24.3862 48.3297 23.458 41.0807 22.8513 33.8079M748.206 205.402C749.343 200.858 750.073 196.252 750.529 191.623C751.05 185.895 751.149 180.151 750.946 174.408C758.138 170.932 765.15 167.193 771.914 163.106C777.63 159.623 783.147 155.899 788.391 151.882M748.206 205.402L788.391 151.882M748.206 205.402C755.555 196.968 762.575 188.311 769.251 179.447C775.987 170.457 782.371 161.263 788.391 151.882M748.206 205.402C754.048 201.4 759.692 197.174 765.078 192.692M788.391 151.882C787.265 157.153 785.827 162.355 784.026 167.472C782.456 171.838 780.633 176.118 778.514 180.299M765.078 192.692C769.773 188.744 774.269 184.618 778.514 180.299M765.078 192.692C759.687 197.171 754.054 201.401 748.212 205.396C747.262 209.081 746.043 212.698 744.5 216.217C743.204 219.115 741.683 221.929 739.916 224.623C746.848 217.719 753.513 210.607 759.901 203.301C766.394 195.821 772.602 188.149 778.514 180.299M765.078 192.692C769.767 188.742 774.264 184.619 778.514 180.299M702.344 230.607C701.669 225.491 700.664 220.42 699.473 215.387C697.919 208.887 696.063 202.463 694.026 196.077C704.513 192.883 714.885 189.394 725.069 185.509C733.865 182.118 742.518 178.453 750.951 174.409M702.344 230.607L750.951 174.409M702.344 230.607C711.029 221.898 719.378 212.929 727.375 203.717C735.598 194.182 743.461 184.407 750.951 174.409M702.344 230.607C710.893 226.768 719.266 222.64 727.414 218.147C734.562 214.178 741.502 209.944 748.201 205.397C749.337 200.866 750.078 196.259 750.523 191.621C751.056 185.897 751.149 180.149 750.951 174.409M702.344 230.607C692.681 234.91 682.826 238.823 672.811 242.424C661.633 246.398 650.295 249.968 638.825 253.195M702.344 230.607C701.669 225.498 700.659 220.425 699.473 215.383C697.919 208.892 696.058 202.461 694.032 196.074M638.825 253.195C635.68 247.443 632.483 241.713 629.234 236.007C625.077 228.72 620.874 221.454 616.622 214.211C630.436 211.746 644.162 208.952 657.784 205.77C669.978 202.879 682.068 199.674 694.032 196.074M638.825 253.195L694.032 196.074M638.825 253.195C648.467 244.508 657.751 235.521 666.717 226.274C676.182 216.466 685.28 206.389 694.032 196.074M638.825 253.195C626.23 256.705 613.498 259.803 600.656 262.54C586.8 265.461 572.838 267.971 558.798 270.104M638.825 253.195C635.69 247.441 632.478 241.716 629.234 236.005C625.088 228.713 620.877 221.45 616.627 214.202M558.798 270.104C553.063 263.659 547.473 257.117 541.966 250.516C535.222 242.422 528.613 234.239 522.097 226.005M558.798 270.104L522.097 226.005M558.798 270.104C568.658 261.745 578.183 253.091 587.424 244.202C597.493 234.46 607.217 224.445 616.627 214.202M558.798 270.104L616.627 214.202M522.097 226.005C538.477 224.717 554.819 223.083 571.105 221.06C586.348 219.132 601.523 216.865 616.627 214.202M522.097 226.005L616.627 214.202M522.097 226.005C505.006 227.315 487.881 228.251 470.737 228.81C453.28 229.364 435.819 229.532 418.352 229.342C426.712 238.53 435.256 247.58 444.057 256.447C451.587 264.002 459.3 271.412 467.265 278.625M522.097 226.005L467.265 278.625M522.097 226.005C512.928 235.761 503.509 245.335 493.789 254.661M522.097 226.005L493.789 254.661M522.097 226.005C528.612 234.238 535.223 242.421 541.961 250.515C547.468 257.117 553.063 263.653 558.798 270.101C543.939 272.323 529.003 274.123 514.015 275.536C498.471 276.979 482.882 277.992 467.265 278.625M467.265 278.625C476.383 270.88 485.2 262.866 493.789 254.661M467.265 278.625L493.789 254.661M467.265 278.625C476.383 270.88 485.206 262.873 493.789 254.661M372.384 277.241C362.964 269.312 353.854 261.099 344.989 252.681C335.068 243.211 325.465 233.478 316.129 223.556M372.384 277.241C379.8 270.247 386.989 263.07 394.021 255.776C402.338 247.109 410.425 238.282 418.351 229.346C401.006 229.122 383.669 228.526 366.357 227.557C349.578 226.586 332.832 225.265 316.129 223.556M372.384 277.241C357.07 276.175 341.797 274.722 326.582 272.846C312.077 271.02 297.641 268.831 283.292 266.209C288.333 259.96 293.28 253.659 298.171 247.314C304.234 239.443 310.209 231.514 316.129 223.556M283.292 266.212C273.403 257.733 263.855 248.951 254.604 239.933C244.615 230.14 234.985 220.066 225.674 209.763M283.292 266.212L225.674 209.763M283.292 266.212C288.331 259.964 293.278 253.664 298.167 247.319C304.232 239.446 310.208 231.514 316.128 223.559C300.33 221.905 284.581 219.918 268.902 217.533C254.413 215.295 239.996 212.732 225.674 209.763M283.292 266.212C273.403 257.733 263.855 248.951 254.601 239.933C244.615 230.14 234.985 220.066 225.674 209.763M283.292 266.212C269.883 263.73 256.567 260.894 243.372 257.63C231.266 254.602 219.276 251.234 207.443 247.452C209.873 241.869 212.444 236.344 215.092 230.849C218.51 223.774 222.055 216.75 225.674 209.763M207.445 247.451C198.006 238.723 188.921 229.702 180.163 220.433C170.997 210.664 162.185 200.638 153.741 190.369M207.445 247.451L153.741 190.369M207.445 247.451C209.872 241.867 212.444 236.343 215.092 230.85C218.509 223.773 222.054 216.749 225.675 209.762C212.733 207.053 199.88 204.02 187.155 200.583C175.89 197.521 164.735 194.144 153.741 190.369M207.445 247.451C196.764 243.998 186.226 240.231 175.876 236.059C166.666 232.313 157.621 228.261 148.797 223.841C148.897 218.902 149.371 213.972 150.065 209.071C150.982 202.79 152.254 196.561 153.741 190.369M148.796 223.845C140.448 215.188 132.45 206.272 124.79 197.133M148.796 223.845L124.79 197.133M148.796 223.845C148.895 218.901 149.369 213.973 150.064 209.076C150.979 202.787 152.254 196.56 153.742 190.371C144.184 187.063 134.763 183.464 125.54 179.476C117.641 176.03 109.904 172.309 102.398 168.229M148.796 223.845L102.398 168.229M148.796 223.845C140.448 215.188 132.448 206.272 124.79 197.133M148.796 223.845C141.025 219.925 133.442 215.723 126.104 211.185C119.686 207.189 113.471 202.948 107.513 198.417C106.028 194.008 104.924 189.501 104.11 184.954M124.79 197.133C116.963 187.724 109.495 178.084 102.398 168.229M124.79 197.133L102.398 168.229M102.398 168.229C102.622 173.83 103.151 179.415 104.11 184.954M104.11 184.954C104.925 189.496 106.028 194 107.514 198.418M104.11 184.954C103.153 179.409 102.623 173.824 102.4 168.224C96.0418 164.732 89.8678 160.999 83.9563 156.939C78.972 153.478 74.1915 149.799 69.6871 145.863M87.6162 172.852C93.9131 181.576 100.55 190.103 107.514 198.418M87.6162 172.852L69.6871 145.863M87.6162 172.852C81.2925 164.041 75.3122 155.039 69.6871 145.863M107.514 198.418C102.316 194.443 97.3272 190.259 92.5856 185.849C88.4438 181.977 84.5078 177.936 80.7905 173.739C78.5355 169.617 76.525 165.393 74.7674 161.084C72.7541 156.099 71.0751 151.012 69.6871 145.863M40.9808 89.6258C44.9716 99.1984 49.3351 108.645 54.0635 117.95C58.9085 127.41 64.1198 136.719 69.6882 145.86M40.9808 89.6258L69.6882 145.86M40.9808 89.6258C42.1388 96.043 43.6053 102.411 45.4127 108.706C47.0319 114.271 48.9235 119.769 51.0822 125.188C53.4933 128.663 56.1232 132.015 58.9593 135.227C62.2904 138.964 65.8839 142.497 69.6882 145.86M40.9808 89.6258C44.9702 99.1963 49.3337 108.641 54.0635 117.942C58.9067 127.405 64.1181 136.717 69.6882 145.86M40.9808 89.6258C44.0061 92.55 47.2998 95.2307 50.7703 97.7322C55.1067 100.819 59.6928 103.613 64.4289 106.197C64.5909 113.377 65.1048 120.542 66.0651 127.673C66.9205 133.79 68.1037 139.857 69.6882 145.86M64.4273 106.207C69.9296 116.882 75.8352 127.39 82.134 137.714C88.5031 148.085 95.2621 158.264 102.4 168.234M64.4273 106.207L102.4 168.234M64.4273 106.207C64.5898 113.386 65.1042 120.549 66.0656 127.679C66.9194 133.792 68.1031 139.872 69.6871 145.871C74.192 149.809 78.9715 153.483 83.9552 156.948C89.8678 161.007 96.0407 164.745 102.4 168.234M64.4273 106.207C69.9296 116.882 75.8361 127.391 82.1356 137.714C88.504 148.085 95.2622 158.264 102.4 168.234M64.4273 106.207C70.3262 109.391 76.4354 112.239 82.672 114.87C90.3329 118.062 98.165 120.917 106.099 123.532C104.674 131.602 103.563 139.703 102.898 147.852C102.374 154.638 102.162 161.432 102.4 168.234M106.099 123.53C113.281 135.171 120.867 146.614 128.845 157.84C136.76 168.914 145.063 179.765 153.743 190.378M106.099 123.53L153.743 190.378M106.099 123.53C104.675 131.602 103.564 139.699 102.9 147.851C102.376 154.635 102.164 161.433 102.401 168.232C109.906 172.309 117.643 176.036 125.542 179.479C134.765 183.46 144.185 187.061 153.743 190.378M106.099 123.53C113.281 135.171 120.867 146.614 128.846 157.84C136.76 168.914 145.063 179.765 153.743 190.378M106.099 123.53C115.665 126.656 125.366 129.434 135.15 131.967C146.687 134.926 158.326 137.546 170.034 139.913C166.538 148.999 163.249 158.157 160.273 167.393C157.843 174.992 155.627 182.653 153.743 190.378M170.034 139.909C178.729 152.219 187.798 164.317 197.231 176.191C206.36 187.616 215.834 198.821 225.676 209.769M170.034 139.909L225.676 209.769M170.034 139.909C166.538 148.997 163.251 158.155 160.274 167.392C157.844 174.996 155.628 182.653 153.743 190.374C164.735 194.148 175.889 197.524 187.155 200.595C199.881 204.026 212.733 207.05 225.676 209.769M170.034 139.909C178.729 152.219 187.799 164.317 197.233 176.191C206.362 187.616 215.834 198.813 225.676 209.769M170.034 139.909C183.51 142.605 197.067 144.965 210.675 147.075C225.951 149.404 241.284 151.412 256.659 153.155M170.034 139.909L256.659 153.155M225.676 209.769C230.174 201.095 234.788 192.484 239.477 183.896C245.108 173.605 250.845 163.36 256.659 153.155M225.676 209.769L256.659 153.155M225.676 209.769C230.174 201.092 234.789 192.477 239.48 183.894C245.109 173.609 250.847 163.37 256.659 153.155M225.676 209.769C239.998 212.731 254.415 215.297 268.903 217.532C284.582 219.914 300.33 221.909 316.13 223.556M256.659 153.155C266.274 165.697 276.189 178.047 286.434 190.188C296.035 201.517 305.919 212.653 316.13 223.556M256.659 153.155L316.13 223.556M256.659 153.155C266.274 165.697 276.189 178.047 286.435 190.188C296.036 201.517 305.919 212.653 316.13 223.556M256.659 153.155C273.472 155.042 290.326 156.604 307.21 157.895C325.184 159.237 343.184 160.288 361.202 161.05M316.13 223.556C323.219 213.999 330.239 204.403 337.19 194.766C345.263 183.566 353.267 172.327 361.202 161.05M361.202 161.05C370.762 173.315 380.529 185.441 390.544 197.414C399.595 208.203 408.847 218.862 418.35 229.344M361.202 161.05L418.35 229.344M361.202 161.05C353.265 172.323 345.267 183.574 337.192 194.771C330.242 204.407 323.22 214.002 316.128 223.557C332.831 225.271 349.578 226.593 366.356 227.561C383.669 228.528 401.005 229.122 418.35 229.344M361.202 161.05C370.763 173.315 380.53 185.441 390.546 197.414C399.601 208.203 408.852 218.862 418.35 229.344M361.202 161.05C379.867 161.815 398.545 162.284 417.23 162.457C436.057 162.618 454.878 162.48 473.7 162.042C464.348 174.153 454.823 186.141 445.074 197.99C436.352 208.572 427.462 219.039 418.35 229.344M418.35 229.344C435.814 229.542 453.281 229.368 470.736 228.822C487.879 228.257 505.004 227.32 522.096 226.012C514.365 216.237 506.768 206.377 499.256 196.472C490.634 185.056 482.115 173.579 473.701 162.041C464.354 174.143 454.824 186.137 445.076 197.992C436.359 208.566 427.463 219.031 418.35 229.344ZM581.591 155.934C588.023 166.451 594.424 176.976 600.771 187.531C606.097 196.405 611.39 205.293 616.622 214.213C601.523 216.867 586.339 219.136 571.102 221.065C554.816 223.094 538.475 224.73 522.095 226.011M581.591 155.934L522.095 226.011M581.591 155.934C571.882 168.442 561.894 180.787 551.6 192.925C542.042 204.144 532.222 215.193 522.095 226.011M581.591 155.934C564.09 157.532 546.557 158.82 528.994 159.831C510.579 160.862 492.144 161.601 473.699 162.045C482.111 173.582 490.632 185.056 499.26 196.466C506.767 206.381 514.365 216.235 522.095 226.011M673.832 143.946C677.95 153.34 681.892 162.796 685.582 172.323C688.607 180.183 691.451 188.089 694.021 196.081C682.074 199.68 669.978 202.881 657.784 205.764C644.162 208.957 630.436 211.754 616.617 214.215M673.832 143.946L616.617 214.215M673.832 143.946C664.801 156.37 655.428 168.584 645.683 180.564C636.338 192.007 626.659 203.24 616.617 214.215M673.832 143.946C659.338 146.454 644.788 148.635 630.189 150.551C614.03 152.646 597.828 154.431 581.589 155.934C588.023 166.448 594.415 176.982 600.766 187.536C606.099 196.406 611.382 205.299 616.617 214.215M791.608 110.928C791.822 118.337 791.685 125.746 791.092 133.139C790.56 139.421 789.687 145.678 788.391 151.888C783.142 155.9 777.63 159.625 771.908 163.109C765.15 167.185 758.138 170.933 750.957 174.402M791.608 110.928L750.957 174.402M791.608 110.928C785.654 121.889 779.29 132.671 772.529 143.256C765.726 153.854 758.523 164.236 750.957 174.402M791.608 110.928C784.756 114.133 777.739 116.995 770.591 119.616C761.894 122.789 753.065 125.61 744.121 128.191C746.081 136.519 747.74 144.911 748.969 153.351C749.974 160.344 750.677 167.361 750.957 174.402M819.5 94.0167C818.55 100.623 817.282 107.197 815.629 113.698C814.157 119.402 812.387 125.043 810.325 130.602C807.443 134.229 804.308 137.686 800.969 140.981C797.033 144.843 792.816 148.47 788.391 151.886M819.5 94.0167L788.391 151.886M819.5 94.0167C815.126 103.895 810.37 113.638 805.241 123.227C799.994 132.947 794.374 142.506 788.391 151.886M819.5 94.0167C815.794 97.0369 811.824 99.7814 807.684 102.339C802.518 105.489 797.132 108.322 791.603 110.929C791.822 118.337 791.685 125.752 791.092 133.136C790.554 139.426 789.687 145.685 788.391 151.886M107.515 198.427C114.357 206.552 121.515 214.464 128.975 222.149C136.213 229.558 143.741 236.739 151.546 243.68M107.515 198.427L151.546 243.68M107.515 198.427C108.769 202.08 110.28 205.658 112.092 209.125C113.635 212.035 115.393 214.852 117.354 217.557C122.338 222.067 127.522 226.399 132.894 230.544C138.905 235.148 145.128 239.531 151.546 243.68M107.515 198.427C114.357 206.552 121.515 214.464 128.976 222.149C136.213 229.558 143.741 236.74 151.546 243.68M107.515 198.427C113.475 202.952 119.69 207.194 126.107 211.197C133.445 215.73 141.028 219.928 148.799 223.849C148.745 227.644 148.913 231.439 149.457 235.203C149.894 238.074 150.552 240.915 151.546 243.68M148.8 223.846C156.834 232.138 165.194 240.177 173.865 247.949C182.099 255.27 190.612 262.343 199.425 269.124M148.8 223.846L199.425 269.124M148.8 223.846C148.746 227.635 148.914 231.43 149.46 235.197C149.897 238.065 150.554 240.912 151.548 243.679C158.707 248.277 166.087 252.591 173.651 256.65C182.045 261.124 190.649 265.27 199.425 269.124M148.8 223.846C156.835 232.138 165.195 240.177 173.866 247.949C182.099 255.27 190.614 262.343 199.425 269.124M148.8 223.846C157.624 228.262 166.669 232.321 175.88 236.058C186.229 240.233 196.767 243.999 207.447 247.452M199.425 269.124C200.251 266.051 201.268 263.022 202.363 260.022C203.923 255.795 205.646 251.613 207.447 247.452M199.425 269.124C209.082 273.331 218.928 277.173 228.925 280.7C239.81 284.506 250.855 287.926 262.028 291.002M199.425 269.124L207.447 247.452M199.425 269.124C200.251 266.055 201.269 263.021 202.364 260.023C203.924 255.795 205.648 251.609 207.447 247.452M207.447 247.452C216.301 255.594 225.453 263.472 234.934 271.041C243.688 277.988 252.709 284.656 262.028 291.002M207.447 247.452C216.301 255.594 225.454 263.472 234.936 271.041C243.688 277.988 252.71 284.656 262.028 291.002M207.447 247.452C219.281 251.237 231.27 254.607 243.377 257.634C256.571 260.889 269.887 263.737 283.295 266.212C279.379 271.056 275.408 275.863 271.336 280.607C268.306 284.12 265.223 287.597 262.028 291.002M283.293 266.217C292.277 273.876 301.531 281.282 311.103 288.356C319.652 294.636 328.442 300.647 337.52 306.321M283.293 266.217L337.52 306.321M283.293 266.217C279.377 271.06 275.406 275.869 271.334 280.613C268.305 284.126 265.221 287.603 262.025 291.003C274.03 294.276 286.163 297.142 298.399 299.655C311.35 302.27 324.398 304.494 337.52 306.321M283.293 266.217C292.278 273.876 301.532 281.282 311.105 288.356C319.653 294.636 328.442 300.647 337.52 306.321M283.293 266.217C297.64 268.836 312.077 271.039 326.581 272.855C341.796 274.724 357.07 276.189 372.383 277.248C366.284 282.971 360.035 288.575 353.56 293.967C348.379 298.254 343.061 302.407 337.52 306.321M372.384 277.247C380.618 284.142 389.079 290.821 397.834 297.194C405.342 302.617 413.05 307.811 421.031 312.678M372.384 277.247L421.031 312.678M372.384 277.247C366.285 282.971 360.037 288.57 353.562 293.966C348.381 298.246 343.062 302.401 337.52 306.319C351.181 308.186 364.908 309.654 378.678 310.719M372.384 277.247C380.619 284.142 389.081 290.814 397.834 297.186C405.342 302.617 413.05 307.811 421.031 312.678M372.384 277.247C388.12 278.305 403.887 278.958 419.665 279.206C435.533 279.416 451.407 279.227 467.262 278.635C459.387 285.286 451.301 291.734 442.929 297.891C435.845 303.071 428.572 308.034 421.031 312.678M421.031 312.678C406.893 312.436 392.768 311.783 378.678 310.719M421.031 312.678L378.678 310.719M378.678 310.719C364.907 309.656 351.18 308.188 337.519 306.316C345.51 311.276 353.71 315.949 362.156 320.27C369.513 324 377.041 327.458 384.768 330.549M378.678 310.719C392.768 311.782 406.893 312.434 421.031 312.675C414.76 316.513 408.323 320.121 401.658 323.388C396.179 326.051 390.56 328.47 384.768 330.549M384.768 330.549C377.041 327.458 369.513 324 362.154 320.27C353.708 315.949 345.51 311.276 337.52 306.316C333.201 309.346 328.756 312.227 324.108 314.842C320.56 316.812 316.902 318.626 313.078 320.155C324.673 322.6 336.361 324.687 348.119 326.411C360.277 328.167 372.501 329.547 384.768 330.549ZM558.796 270.109C563.322 275.181 567.932 280.19 572.691 285.094C576.303 288.805 580.003 292.446 583.854 295.968C571.309 298.894 558.646 301.412 545.899 303.559C532.529 305.79 519.074 307.593 505.569 309.024M558.796 270.109L505.569 309.024M558.796 270.109C549.924 277.58 540.794 284.806 531.353 291.703M558.796 270.109L531.353 291.703M558.796 270.109C543.934 272.323 528.999 274.138 514.014 275.553C498.469 276.984 482.881 278.002 467.264 278.633C473.906 284.61 480.723 290.44 487.785 296.031C493.531 300.556 499.428 304.92 505.569 309.024M505.569 309.024C514.431 303.566 523.009 297.764 531.353 291.703M505.569 309.024L531.353 291.703M505.569 309.024C514.426 303.566 523.009 297.764 531.353 291.703M638.825 253.197C641.17 257.512 643.492 261.84 645.716 266.204C647.303 269.316 648.845 272.434 650.306 275.595C639.962 279.596 629.453 283.219 618.802 286.516C607.288 290.047 595.627 293.179 583.856 295.963M638.825 253.197L583.856 295.963M638.825 253.197C629.859 261.242 620.597 269.017 611.011 276.477C602.232 283.262 593.192 289.784 583.856 295.963M638.825 253.197C626.225 256.707 613.492 259.804 600.65 262.552C586.793 265.471 572.837 267.977 558.798 270.105C563.323 275.182 567.932 280.194 572.692 285.092C576.304 288.801 580.005 292.446 583.856 295.963M638.825 253.197C629.859 261.242 620.597 269.017 611.005 276.477C602.226 283.262 593.192 289.784 583.856 295.963M702.344 230.614C702.833 234.475 703.141 238.351 703.091 242.241C703.042 245.115 702.795 247.989 702.213 250.827C694.383 255.37 686.334 259.609 678.121 263.565C669.028 267.912 659.738 271.904 650.3 275.598M702.344 230.614L650.3 275.598M702.344 230.614C694.032 238.895 685.406 246.922 676.457 254.666C668.024 261.924 659.316 268.913 650.3 275.598M702.344 230.614C692.687 234.918 682.82 238.83 672.8 242.43C661.638 246.4 650.295 249.971 638.825 253.2C641.17 257.518 643.481 261.844 645.716 266.214C647.303 269.32 648.845 272.441 650.3 275.598M702.344 230.614C710.893 226.774 719.277 222.638 727.408 218.154C734.557 214.18 741.508 209.948 748.201 205.404M702.344 230.614C702.833 234.475 703.135 238.353 703.097 242.237C703.042 245.113 702.795 247.989 702.207 250.82M748.201 205.404C747.256 209.088 746.037 212.705 744.5 216.226C743.199 219.117 741.678 221.934 739.91 224.625C734.381 229.206 728.638 233.571 722.72 237.73C716.093 242.348 709.246 246.706 702.207 250.82M748.201 205.404L702.207 250.82M748.201 205.404C741.013 213.599 733.507 221.57 725.695 229.302C718.157 236.72 710.323 243.898 702.207 250.82M654.27 285.991C653.957 284.628 653.49 283.287 652.996 281.967C652.184 279.813 651.261 277.701 650.295 275.596C659.745 271.914 669.028 267.902 678.121 263.569C686.34 259.603 694.378 255.365 702.213 250.821M654.27 285.991L702.213 250.821M654.27 285.991C662.484 280.84 670.472 275.411 678.247 269.747M654.27 285.991L678.247 269.747M654.27 285.991C662.11 282.192 669.791 278.14 677.297 273.842C684.177 269.868 690.891 265.695 697.425 261.3C698.529 259.952 699.429 258.504 700.17 256.977C701.109 254.994 701.752 252.925 702.213 250.821M654.27 285.991C662.484 280.84 670.478 275.411 678.247 269.747M702.213 250.821C694.471 257.377 686.488 263.697 678.247 269.747M702.213 250.821L678.247 269.747M599.245 307.76C596.906 306.427 594.71 304.898 592.59 303.299C589.547 300.981 586.661 298.502 583.857 295.954C595.626 293.182 607.288 290.047 618.802 286.514C629.453 283.219 639.962 279.588 650.306 275.588M599.245 307.76L650.306 275.588M599.245 307.76C607.848 303.236 616.232 298.391 624.407 293.28M599.245 307.76L624.407 293.28M599.245 307.76C609.051 304.625 618.719 301.183 628.234 297.413C637.07 293.889 645.757 290.076 654.275 285.984C653.952 284.615 653.496 283.282 653.007 281.962C652.195 279.812 651.267 277.696 650.306 275.588M599.245 307.76C600.82 308.646 602.462 309.441 604.208 310.016C605.399 310.389 606.624 310.659 607.881 310.714C615.63 307.246 623.238 303.538 630.694 299.597C638.735 295.317 646.597 290.778 654.265 285.989C645.748 290.083 637.064 293.895 628.229 297.418C618.719 301.181 609.04 304.626 599.245 307.76ZM650.306 275.588C641.922 281.774 633.296 287.68 624.407 293.28M650.306 275.588L624.407 293.28M650.306 275.588C641.922 281.774 633.302 287.68 624.407 293.28M533.391 323.83C529.01 322.191 524.796 320.23 520.705 318.091C515.472 315.321 510.45 312.255 505.568 309.026C519.078 307.6 532.526 305.789 545.898 303.568C558.644 301.415 571.307 298.891 583.853 295.964M533.391 323.83L583.853 295.964M533.391 323.83C541.745 320.107 549.899 316.034 557.858 311.679C566.77 306.77 575.426 301.504 583.853 295.964M533.391 323.83C544.855 321.804 556.234 319.416 567.505 316.671C578.201 314.038 588.791 311.076 599.239 307.764C596.895 306.434 594.704 304.905 592.586 303.3C589.543 300.983 586.656 298.507 583.853 295.964M460.143 331.848C453.862 329.578 447.759 326.948 441.806 324.068C434.667 320.592 427.756 316.756 421.029 312.683C435.235 312.9 449.448 312.703 463.644 312.107C477.65 311.477 491.633 310.46 505.567 309.024M460.143 331.848L505.567 309.024M460.143 331.848C467.534 328.988 474.729 325.769 481.763 322.279C489.928 318.186 497.848 313.741 505.567 309.024M460.143 331.848C472.593 331.26 485.016 330.295 497.391 328.954C509.454 327.616 521.461 325.908 533.39 323.831C529.009 322.191 524.795 320.233 520.699 318.091C515.466 315.319 510.444 312.263 505.567 309.024M460.143 331.848C467.534 328.988 474.734 325.769 481.768 322.279C489.928 318.186 497.848 313.741 505.567 309.024M262.026 291.001C270.514 296.737 279.234 302.199 288.212 307.317M262.026 291.001C274.031 294.265 286.165 297.137 298.401 299.651C311.352 302.268 324.399 304.479 337.521 306.311C333.203 309.341 328.757 312.227 324.108 314.838C320.56 316.814 316.903 318.626 313.08 320.148M262.026 291.001C259.768 293.391 257.458 295.746 255.026 297.998C253.409 299.486 251.742 300.939 249.946 302.254C259.897 305.836 269.993 309.073 280.212 311.993C291.055 315.065 302.017 317.772 313.08 320.148M288.212 307.317C296.301 311.896 304.584 316.188 313.08 320.148M288.212 307.317C296.3 311.896 304.582 316.188 313.08 320.148M249.946 302.253C241.392 297.535 233.062 292.514 224.942 287.227M249.946 302.253C251.74 300.933 253.409 299.486 255.025 297.998C257.457 295.744 259.768 293.385 262.026 290.997C250.853 287.922 239.809 284.502 228.925 280.696C218.928 277.172 209.08 273.324 199.422 269.118C207.677 275.43 216.178 281.483 224.942 287.227M249.946 302.253L198.163 279.405M249.946 302.253C240.667 298.889 231.529 295.238 222.555 291.271C214.264 287.578 206.125 283.631 198.163 279.405M224.942 287.227C216.178 281.483 207.677 275.43 199.423 269.118C198.878 271.182 198.415 273.26 198.175 275.367C198.032 276.708 197.976 278.057 198.163 279.405M198.163 279.405C206.335 284.063 232.08 298.539 243.932 305.194M198.163 279.405L243.932 305.194M198.163 279.405C190.144 274.114 182.338 268.575 174.76 262.796C166.772 256.665 159.029 250.288 151.546 243.674C158.706 248.275 166.085 252.596 173.649 256.652C182.044 261.13 190.647 265.272 199.422 269.119C198.878 271.179 198.414 273.261 198.173 275.371C198.031 276.706 197.975 278.062 198.163 279.405ZM243.932 305.194C244.797 305.092 245.612 304.799 246.381 304.445C247.661 303.845 248.828 303.074 249.948 302.256M243.932 305.194L249.948 302.256M243.932 305.194C252.261 308.733 260.721 312.021 269.3 315.054C278.387 318.237 287.595 321.144 296.906 323.768M243.932 305.194L296.906 323.768M249.948 302.256C257.803 306.558 265.83 310.602 274.037 314.359M249.948 302.256L274.037 314.359M249.948 302.256C259.899 305.835 269.995 309.074 280.214 311.999C291.057 315.068 302.02 317.775 313.082 320.147C310.185 321.279 307.206 322.24 304.128 322.902C301.755 323.399 299.344 323.706 296.906 323.768M249.948 302.256L296.906 323.768M274.037 314.359C281.524 317.747 289.147 320.897 296.906 323.768M274.037 314.359L296.906 323.768M357.806 336.626C350.541 334.625 343.379 332.342 336.339 329.784C328.426 326.886 320.677 323.652 313.082 320.15M357.806 336.626C347.308 335.085 336.873 333.224 326.52 331.045C316.557 328.921 306.68 326.494 296.906 323.766C299.343 323.713 301.756 323.397 304.13 322.901C307.207 322.243 310.185 321.284 313.082 320.15M357.806 336.626C361.994 336.271 366.138 335.62 370.225 334.741C375.179 333.648 380.025 332.219 384.769 330.549C372.504 329.544 360.281 328.165 348.122 326.416C336.362 324.685 324.676 322.606 313.082 320.15M405.237 337.58C398.276 335.56 391.458 333.195 384.77 330.544M405.237 337.58L423.563 341.926M405.237 337.58C411.262 339.308 417.371 340.77 423.563 341.926M384.77 330.544C380.026 332.212 375.182 333.647 370.227 334.743C366.138 335.62 361.995 336.265 357.806 336.623C368.595 338.177 379.441 339.402 390.325 340.298C401.38 341.176 412.466 341.719 423.563 341.926M384.77 330.544C397.271 331.537 409.806 332.148 422.354 332.378C434.954 332.577 447.557 332.404 460.147 331.84C453.81 334.258 447.351 336.397 440.757 338.198C435.106 339.72 429.371 340.976 423.563 341.926M533.39 323.832C536.796 325.089 540.29 326.145 543.884 326.894C546.727 327.469 549.614 327.844 552.523 327.951C542.417 330.387 532.219 332.515 521.948 334.329C511.337 336.174 500.658 337.693 489.929 338.882M533.39 323.832L489.929 338.882M533.39 323.832C525.977 327.102 518.414 330.097 510.701 332.752M533.39 323.832L510.701 332.752M533.39 323.832C521.461 325.909 509.454 327.619 497.391 328.961C485.016 330.295 472.593 331.256 460.144 331.842C465.361 333.701 470.683 335.312 476.122 336.576C480.665 337.605 485.269 338.394 489.929 338.882M489.929 338.882C496.956 337.131 503.884 335.072 510.701 332.752M489.929 338.882L510.701 332.752M489.929 338.882C496.956 337.131 503.878 335.072 510.701 332.752M599.239 307.767C600.82 308.649 602.457 309.449 604.208 310.019C605.394 310.399 606.618 310.664 607.881 310.718C599.129 314.073 590.253 317.166 581.267 319.993C571.79 322.933 562.204 325.587 552.524 327.951M599.239 307.767L552.524 327.951M599.239 307.767C591.394 311.864 583.379 315.698 575.186 319.226C567.765 322.398 560.205 325.309 552.524 327.951M599.239 307.767C588.785 311.084 578.201 314.043 567.506 316.682C556.231 319.422 544.85 321.797 533.386 323.832C536.796 325.088 540.29 326.146 543.891 326.899C546.728 327.469 549.615 327.842 552.524 327.951M23.5393 -16.7173C21.7 -16.8994 19.8618 -17.1089 18.0373 -17.3908C17.0144 -17.5452 15.991 -17.7273 15 -18M849 -17.6669C847.583 -17.3937 846.15 -17.2024 844.712 -17.0295C842.318 -16.7378 839.908 -16.5284 837.503 -16.337M778.514 180.296C780.626 176.119 782.465 171.838 784.02 167.473C785.827 162.357 787.265 157.146 788.396 151.88C792.816 148.463 797.033 144.843 800.975 140.978C804.313 137.68 807.448 134.224 810.331 130.595C805.691 139.191 800.711 147.637 795.43 155.934C790.103 164.221 784.461 172.347 778.514 180.296ZM80.7894 173.739C75.2065 165.945 69.9219 157.986 64.9445 149.875C60.0114 141.787 55.3876 133.554 51.0811 125.189C53.4896 128.665 56.1194 132.017 58.9577 135.228C62.2887 138.967 65.8811 142.5 69.6871 145.867C71.074 151.014 72.7541 156.104 74.7658 161.092C76.5261 165.397 78.5366 169.618 80.7894 173.739ZM418.349 229.349C426.709 238.54 435.253 247.585 444.048 256.45C451.583 264.006 459.296 271.424 467.261 278.632C451.403 279.226 435.529 279.417 419.658 279.205C403.881 278.958 388.116 278.304 372.381 277.244C379.799 270.254 386.988 263.076 394.02 255.781C402.336 247.12 410.423 238.293 418.349 229.349ZM810.331 130.598C812.387 125.038 814.156 119.398 815.634 113.695C817.287 107.192 818.55 100.624 819.5 94.0153C822.476 91.5581 825.27 88.9295 827.796 86.1036C829.855 83.7696 831.71 81.3129 833.341 78.7247C830.233 87.4919 826.787 96.1618 823.008 104.719C819.115 113.471 814.886 122.102 810.331 130.598ZM51.0822 125.193C46.8638 116.94 42.9592 108.564 39.3749 100.078C35.9063 91.794 32.7515 83.4094 29.9159 74.9381C31.1746 77.3848 32.6354 79.7457 34.2863 82.0015C36.2848 84.7032 38.5359 87.2329 40.9803 89.6312C42.1382 96.0454 43.6042 102.419 45.4116 108.71C47.0307 114.275 48.9226 119.774 51.0822 125.193ZM467.261 278.633C473.905 284.615 480.722 290.443 487.783 296.034C493.524 300.561 499.426 304.926 505.568 309.028C491.635 310.46 477.653 311.487 463.645 312.105C449.451 312.706 435.238 312.897 421.03 312.677C428.571 308.032 435.844 303.067 442.928 297.893C451.299 291.738 459.392 285.283 467.261 278.633ZM117.355 217.555C110.759 210.695 104.426 203.64 98.367 196.4C92.2235 189.024 86.3618 181.466 80.7921 173.74C84.5128 177.938 88.4498 181.982 92.5905 185.858C97.3299 190.262 102.319 194.446 107.516 198.416C108.77 202.075 110.281 205.65 112.093 209.119C113.637 212.03 115.395 214.848 117.355 217.555ZM697.42 261.297C698.523 259.955 699.429 258.504 700.17 256.972C701.109 254.995 701.757 252.923 702.207 250.822C709.24 246.708 716.092 242.346 722.714 237.728C728.642 233.568 734.379 229.198 739.91 224.628C733.171 231.294 726.181 237.758 718.953 244.009C711.997 249.986 704.815 255.752 697.42 261.297ZM421.029 312.681C427.756 316.754 434.667 320.591 441.806 324.07C447.759 326.947 453.862 329.574 460.143 331.844C447.556 332.405 434.951 332.586 422.35 332.384C409.802 332.157 397.266 331.544 384.766 330.547C390.559 328.48 396.177 326.055 401.656 323.394C408.321 320.125 414.759 316.518 421.029 312.681ZM460.146 331.841C465.362 333.699 470.685 335.305 476.125 336.573C480.668 337.602 485.271 338.392 489.931 338.882C478.974 340.07 467.975 340.927 456.952 341.451C445.832 341.949 434.695 342.108 423.562 341.929C429.369 340.98 435.104 339.719 440.756 338.206C447.349 336.4 453.809 334.257 460.146 331.841Z" stroke="#4B5563" stroke-width="2.087" stroke-miterlimit="10"/>
</g>
</g>
<path d="M237.77 85C237.59 85 237.47 84.92 237.41 84.76L230.99 64.33L230.96 64.21C230.96 64.07 231.05 64 231.23 64H233.66C233.84 64 233.96 64.08 234.02 64.24L238.97 80.83C238.99 80.87 239.02 80.89 239.06 80.89C239.1 80.89 239.13 80.87 239.15 80.83L244.1 64.24C244.16 64.08 244.27 64 244.43 64H246.8C247.02 64 247.1 64.11 247.04 64.33L240.56 84.76C240.5 84.92 240.38 85 240.2 85H237.77ZM252.458 67.33C251.898 67.33 251.438 67.15 251.078 66.79C250.718 66.43 250.538 65.97 250.538 65.41C250.538 64.85 250.718 64.39 251.078 64.03C251.438 63.67 251.898 63.49 252.458 63.49C253.018 63.49 253.478 63.67 253.838 64.03C254.198 64.39 254.378 64.85 254.378 65.41C254.378 65.97 254.198 66.43 253.838 66.79C253.478 67.15 253.018 67.33 252.458 67.33ZM251.258 84.97C251.058 84.97 250.958 84.87 250.958 84.67V70.03C250.958 69.83 251.058 69.73 251.258 69.73H253.538C253.738 69.73 253.838 69.83 253.838 70.03V84.67C253.838 84.87 253.738 84.97 253.538 84.97H251.258ZM264.334 85.18C263.134 85.18 262.074 85 261.154 84.64C260.254 84.28 259.554 83.79 259.054 83.17C258.554 82.53 258.304 81.83 258.304 81.07V80.74C258.304 80.54 258.404 80.44 258.604 80.44H260.764C260.964 80.44 261.064 80.54 261.064 80.74V80.89C261.064 81.45 261.364 81.94 261.964 82.36C262.584 82.78 263.364 82.99 264.304 82.99C265.204 82.99 265.934 82.8 266.494 82.42C267.054 82.02 267.334 81.52 267.334 80.92C267.334 80.34 267.074 79.91 266.554 79.63C266.034 79.33 265.194 79.02 264.034 78.7C262.894 78.38 261.934 78.06 261.154 77.74C260.394 77.4 259.744 76.93 259.204 76.33C258.684 75.71 258.424 74.92 258.424 73.96C258.424 72.62 258.944 71.56 259.984 70.78C261.044 69.98 262.444 69.58 264.184 69.58C265.344 69.58 266.364 69.77 267.244 70.15C268.144 70.51 268.834 71.02 269.314 71.68C269.794 72.34 270.034 73.08 270.034 73.9V73.99C270.034 74.19 269.934 74.29 269.734 74.29H267.634C267.434 74.29 267.334 74.19 267.334 73.99V73.9C267.334 73.32 267.044 72.84 266.464 72.46C265.904 72.06 265.134 71.86 264.154 71.86C263.274 71.86 262.554 72.03 261.994 72.37C261.454 72.71 261.184 73.17 261.184 73.75C261.184 74.33 261.444 74.77 261.964 75.07C262.504 75.37 263.364 75.69 264.544 76.03C265.704 76.35 266.664 76.67 267.424 76.99C268.204 77.29 268.864 77.75 269.404 78.37C269.944 78.97 270.214 79.76 270.214 80.74C270.214 82.1 269.674 83.18 268.594 83.98C267.534 84.78 266.114 85.18 264.334 85.18ZM283.273 70.03C283.273 69.83 283.373 69.73 283.573 69.73H285.823C286.023 69.73 286.123 69.83 286.123 70.03V84.7C286.123 84.9 286.023 85 285.823 85H283.573C283.373 85 283.273 84.9 283.273 84.7V83.59C283.273 83.55 283.253 83.53 283.213 83.53C283.193 83.51 283.163 83.52 283.123 83.56C282.323 84.66 281.093 85.21 279.433 85.21C278.453 85.21 277.543 85.02 276.703 84.64C275.883 84.26 275.223 83.7 274.723 82.96C274.223 82.22 273.973 81.32 273.973 80.26V70.03C273.973 69.83 274.073 69.73 274.273 69.73H276.523C276.723 69.73 276.823 69.83 276.823 70.03V79.36C276.823 80.4 277.093 81.22 277.633 81.82C278.193 82.42 278.973 82.72 279.973 82.72C280.973 82.72 281.773 82.42 282.373 81.82C282.973 81.2 283.273 80.38 283.273 79.36V70.03ZM296.506 69.49C297.726 69.49 298.786 69.71 299.686 70.15C300.606 70.57 301.306 71.17 301.786 71.95C302.286 72.71 302.536 73.58 302.536 74.56V84.7C302.536 84.9 302.436 85 302.236 85H299.956C299.756 85 299.656 84.9 299.656 84.7V83.62C299.656 83.52 299.606 83.5 299.506 83.56C298.986 84.1 298.346 84.52 297.586 84.82C296.846 85.1 296.016 85.24 295.096 85.24C293.616 85.24 292.386 84.87 291.406 84.13C290.446 83.37 289.966 82.23 289.966 80.71C289.966 79.15 290.506 77.93 291.586 77.05C292.686 76.15 294.216 75.7 296.176 75.7H299.536C299.616 75.7 299.656 75.66 299.656 75.58V74.77C299.656 73.89 299.396 73.21 298.876 72.73C298.376 72.23 297.606 71.98 296.566 71.98C295.726 71.98 295.036 72.15 294.496 72.49C293.976 72.81 293.656 73.25 293.536 73.81C293.476 74.01 293.356 74.1 293.176 74.08L290.746 73.75C290.546 73.71 290.456 73.63 290.476 73.51C290.636 72.33 291.266 71.37 292.366 70.63C293.466 69.87 294.846 69.49 296.506 69.49ZM295.726 82.81C296.786 82.81 297.706 82.53 298.486 81.97C299.266 81.41 299.656 80.7 299.656 79.84V78.07C299.656 77.99 299.616 77.95 299.536 77.95H296.716C295.536 77.95 294.596 78.18 293.896 78.64C293.196 79.1 292.846 79.74 292.846 80.56C292.846 81.3 293.106 81.86 293.626 82.24C294.166 82.62 294.866 82.81 295.726 82.81ZM307.324 85C307.124 85 307.024 84.9 307.024 84.7V64.3C307.024 64.1 307.124 64 307.324 64H309.604C309.804 64 309.904 64.1 309.904 64.3V84.7C309.904 84.9 309.804 85 309.604 85H307.324ZM316.424 67.33C315.864 67.33 315.404 67.15 315.044 66.79C314.684 66.43 314.504 65.97 314.504 65.41C314.504 64.85 314.684 64.39 315.044 64.03C315.404 63.67 315.864 63.49 316.424 63.49C316.984 63.49 317.444 63.67 317.804 64.03C318.164 64.39 318.344 64.85 318.344 65.41C318.344 65.97 318.164 66.43 317.804 66.79C317.444 67.15 316.984 67.33 316.424 67.33ZM315.224 84.97C315.024 84.97 314.924 84.87 314.924 84.67V70.03C314.924 69.83 315.024 69.73 315.224 69.73H317.504C317.704 69.73 317.804 69.83 317.804 70.03V84.67C317.804 84.87 317.704 84.97 317.504 84.97H315.224ZM328.301 85.18C327.101 85.18 326.041 85 325.121 84.64C324.221 84.28 323.521 83.79 323.021 83.17C322.521 82.53 322.271 81.83 322.271 81.07V80.74C322.271 80.54 322.371 80.44 322.571 80.44H324.731C324.931 80.44 325.031 80.54 325.031 80.74V80.89C325.031 81.45 325.331 81.94 325.931 82.36C326.551 82.78 327.331 82.99 328.271 82.99C329.171 82.99 329.901 82.8 330.461 82.42C331.021 82.02 331.301 81.52 331.301 80.92C331.301 80.34 331.041 79.91 330.521 79.63C330.001 79.33 329.161 79.02 328.001 78.7C326.861 78.38 325.901 78.06 325.121 77.74C324.361 77.4 323.711 76.93 323.171 76.33C322.651 75.71 322.391 74.92 322.391 73.96C322.391 72.62 322.911 71.56 323.951 70.78C325.011 69.98 326.411 69.58 328.151 69.58C329.311 69.58 330.331 69.77 331.211 70.15C332.111 70.51 332.801 71.02 333.281 71.68C333.761 72.34 334.001 73.08 334.001 73.9V73.99C334.001 74.19 333.901 74.29 333.701 74.29H331.601C331.401 74.29 331.301 74.19 331.301 73.99V73.9C331.301 73.32 331.011 72.84 330.431 72.46C329.871 72.06 329.101 71.86 328.121 71.86C327.241 71.86 326.521 72.03 325.961 72.37C325.421 72.71 325.151 73.17 325.151 73.75C325.151 74.33 325.411 74.77 325.931 75.07C326.471 75.37 327.331 75.69 328.511 76.03C329.671 76.35 330.631 76.67 331.391 76.99C332.171 77.29 332.831 77.75 333.371 78.37C333.911 78.97 334.181 79.76 334.181 80.74C334.181 82.1 333.641 83.18 332.561 83.98C331.501 84.78 330.081 85.18 328.301 85.18ZM350.51 75.46C350.59 76.28 350.62 77.2 350.6 78.22C350.6 78.42 350.5 78.52 350.3 78.52H340.73C340.65 78.52 340.61 78.56 340.61 78.64C340.61 79.32 340.67 79.84 340.79 80.2C341.01 81 341.45 81.63 342.11 82.09C342.79 82.53 343.64 82.75 344.66 82.75C346.14 82.75 347.28 82.14 348.08 80.92C348.18 80.72 348.31 80.69 348.47 80.83L350.18 81.97C350.32 82.09 350.35 82.22 350.27 82.36C349.71 83.26 348.91 83.97 347.87 84.49C346.85 85.01 345.69 85.27 344.39 85.27C342.93 85.27 341.7 84.95 340.7 84.31C339.7 83.67 338.95 82.76 338.45 81.58C337.97 80.4 337.73 78.97 337.73 77.29C337.73 75.83 337.84 74.72 338.06 73.96C338.42 72.58 339.14 71.49 340.22 70.69C341.3 69.89 342.61 69.49 344.15 69.49C346.17 69.49 347.68 70 348.68 71.02C349.68 72.02 350.29 73.5 350.51 75.46ZM344.15 71.98C343.29 71.98 342.58 72.2 342.02 72.64C341.46 73.06 341.08 73.63 340.88 74.35C340.74 74.79 340.65 75.35 340.61 76.03C340.61 76.11 340.65 76.15 340.73 76.15H347.6C347.68 76.15 347.72 76.11 347.72 76.03C347.68 75.37 347.62 74.88 347.54 74.56C347.34 73.78 346.94 73.16 346.34 72.7C345.76 72.22 345.03 71.98 344.15 71.98ZM360.99 90.97C360.85 90.97 360.78 90.87 360.78 90.67V88.9C360.78 88.7 360.88 88.6 361.08 88.6H361.14C361.94 88.58 362.57 88.48 363.03 88.3C363.49 88.12 363.87 87.78 364.17 87.28C364.47 86.8 364.76 86.07 365.04 85.09C365.06 85.07 365.06 85.04 365.04 85C365.04 84.94 365.04 84.91 365.04 84.91L360.03 70.06L360 69.94C360 69.8 360.09 69.73 360.27 69.73H362.7C362.88 69.73 363 69.81 363.06 69.97L366.45 81.28C366.47 81.32 366.5 81.34 366.54 81.34C366.58 81.34 366.61 81.32 366.63 81.28L369.99 69.97C370.05 69.81 370.17 69.73 370.35 69.73H372.72C372.94 69.73 373.02 69.84 372.96 70.06L367.5 86.05C367.04 87.43 366.58 88.45 366.12 89.11C365.66 89.79 365.06 90.27 364.32 90.55C363.58 90.83 362.54 90.97 361.2 90.97H360.99ZM381.874 85.24C380.394 85.24 379.104 84.87 378.004 84.13C376.904 83.37 376.134 82.32 375.694 80.98C375.334 79.9 375.154 78.68 375.154 77.32C375.154 75.9 375.324 74.7 375.664 73.72C376.104 72.4 376.874 71.37 377.974 70.63C379.074 69.87 380.384 69.49 381.904 69.49C383.344 69.49 384.594 69.87 385.654 70.63C386.734 71.37 387.504 72.39 387.964 73.69C388.324 74.71 388.504 75.91 388.504 77.29C388.504 78.69 388.324 79.92 387.964 80.98C387.524 82.32 386.764 83.37 385.684 84.13C384.604 84.87 383.334 85.24 381.874 85.24ZM381.874 82.75C382.674 82.75 383.374 82.53 383.974 82.09C384.574 81.63 385.004 80.99 385.264 80.17C385.484 79.41 385.594 78.47 385.594 77.35C385.594 76.23 385.494 75.3 385.294 74.56C385.034 73.74 384.604 73.11 384.004 72.67C383.404 72.21 382.674 71.98 381.814 71.98C380.994 71.98 380.284 72.21 379.684 72.67C379.084 73.11 378.654 73.74 378.394 74.56C378.174 75.26 378.064 76.19 378.064 77.35C378.064 78.51 378.174 79.45 378.394 80.17C378.634 80.99 379.054 81.63 379.654 82.09C380.274 82.53 381.014 82.75 381.874 82.75ZM401.964 70.03C401.964 69.83 402.064 69.73 402.264 69.73H404.514C404.714 69.73 404.814 69.83 404.814 70.03V84.7C404.814 84.9 404.714 85 404.514 85H402.264C402.064 85 401.964 84.9 401.964 84.7V83.59C401.964 83.55 401.944 83.53 401.904 83.53C401.884 83.51 401.854 83.52 401.814 83.56C401.014 84.66 399.784 85.21 398.124 85.21C397.144 85.21 396.234 85.02 395.394 84.64C394.574 84.26 393.914 83.7 393.414 82.96C392.914 82.22 392.664 81.32 392.664 80.26V70.03C392.664 69.83 392.764 69.73 392.964 69.73H395.214C395.414 69.73 395.514 69.83 395.514 70.03V79.36C395.514 80.4 395.784 81.22 396.324 81.82C396.884 82.42 397.664 82.72 398.664 82.72C399.664 82.72 400.464 82.42 401.064 81.82C401.664 81.2 401.964 80.38 401.964 79.36V70.03ZM416.307 69.58C416.947 69.58 417.527 69.71 418.047 69.97C418.187 70.03 418.237 70.15 418.197 70.33L417.717 72.58C417.697 72.76 417.577 72.82 417.357 72.76C417.017 72.62 416.617 72.55 416.157 72.55L415.737 72.58C414.797 72.62 414.017 72.95 413.397 73.57C412.797 74.17 412.497 74.96 412.497 75.94V84.7C412.497 84.9 412.397 85 412.197 85H409.917C409.717 85 409.617 84.9 409.617 84.7V70.03C409.617 69.83 409.717 69.73 409.917 69.73H412.197C412.397 69.73 412.497 69.83 412.497 70.03V71.62C412.497 71.68 412.507 71.72 412.527 71.74C412.567 71.74 412.597 71.72 412.617 71.68C413.517 70.28 414.747 69.58 416.307 69.58ZM436.535 63.97C437.755 63.97 438.825 64.23 439.745 64.75C440.685 65.25 441.405 65.96 441.905 66.88C442.425 67.8 442.685 68.86 442.685 70.06C442.685 71.26 442.425 72.31 441.905 73.21C441.385 74.11 440.645 74.81 439.685 75.31C438.745 75.81 437.655 76.06 436.415 76.06H431.135C431.055 76.06 431.015 76.1 431.015 76.18V84.7C431.015 84.9 430.915 85 430.715 85H428.435C428.235 85 428.135 84.9 428.135 84.7V64.27C428.135 64.07 428.235 63.97 428.435 63.97H436.535ZM436.145 73.72C437.245 73.72 438.125 73.39 438.785 72.73C439.465 72.07 439.805 71.2 439.805 70.12C439.805 69.02 439.465 68.14 438.785 67.48C438.125 66.8 437.245 66.46 436.145 66.46H431.135C431.055 66.46 431.015 66.5 431.015 66.58V73.6C431.015 73.68 431.055 73.72 431.135 73.72H436.145ZM453.029 69.58C453.669 69.58 454.249 69.71 454.769 69.97C454.909 70.03 454.959 70.15 454.919 70.33L454.439 72.58C454.419 72.76 454.299 72.82 454.079 72.76C453.739 72.62 453.339 72.55 452.879 72.55L452.459 72.58C451.519 72.62 450.739 72.95 450.119 73.57C449.519 74.17 449.219 74.96 449.219 75.94V84.7C449.219 84.9 449.119 85 448.919 85H446.639C446.439 85 446.339 84.9 446.339 84.7V70.03C446.339 69.83 446.439 69.73 446.639 69.73H448.919C449.119 69.73 449.219 69.83 449.219 70.03V71.62C449.219 71.68 449.229 71.72 449.249 71.74C449.289 71.74 449.319 71.72 449.339 71.68C450.239 70.28 451.469 69.58 453.029 69.58ZM459.811 67.33C459.251 67.33 458.791 67.15 458.431 66.79C458.071 66.43 457.891 65.97 457.891 65.41C457.891 64.85 458.071 64.39 458.431 64.03C458.791 63.67 459.251 63.49 459.811 63.49C460.371 63.49 460.831 63.67 461.191 64.03C461.551 64.39 461.731 64.85 461.731 65.41C461.731 65.97 461.551 66.43 461.191 66.79C460.831 67.15 460.371 67.33 459.811 67.33ZM458.611 84.97C458.411 84.97 458.311 84.87 458.311 84.67V70.03C458.311 69.83 458.411 69.73 458.611 69.73H460.891C461.091 69.73 461.191 69.83 461.191 70.03V84.67C461.191 84.87 461.091 84.97 460.891 84.97H458.611ZM471.688 85.18C470.488 85.18 469.428 85 468.508 84.64C467.608 84.28 466.908 83.79 466.408 83.17C465.908 82.53 465.658 81.83 465.658 81.07V80.74C465.658 80.54 465.758 80.44 465.958 80.44H468.118C468.318 80.44 468.418 80.54 468.418 80.74V80.89C468.418 81.45 468.718 81.94 469.318 82.36C469.938 82.78 470.718 82.99 471.658 82.99C472.558 82.99 473.288 82.8 473.848 82.42C474.408 82.02 474.688 81.52 474.688 80.92C474.688 80.34 474.428 79.91 473.908 79.63C473.388 79.33 472.548 79.02 471.388 78.7C470.248 78.38 469.288 78.06 468.508 77.74C467.748 77.4 467.098 76.93 466.558 76.33C466.038 75.71 465.778 74.92 465.778 73.96C465.778 72.62 466.298 71.56 467.338 70.78C468.398 69.98 469.798 69.58 471.538 69.58C472.698 69.58 473.718 69.77 474.598 70.15C475.498 70.51 476.188 71.02 476.668 71.68C477.148 72.34 477.388 73.08 477.388 73.9V73.99C477.388 74.19 477.288 74.29 477.088 74.29H474.988C474.788 74.29 474.688 74.19 474.688 73.99V73.9C474.688 73.32 474.398 72.84 473.818 72.46C473.258 72.06 472.488 71.86 471.508 71.86C470.628 71.86 469.908 72.03 469.348 72.37C468.808 72.71 468.538 73.17 468.538 73.75C468.538 74.33 468.798 74.77 469.318 75.07C469.858 75.37 470.718 75.69 471.898 76.03C473.058 76.35 474.018 76.67 474.778 76.99C475.558 77.29 476.218 77.75 476.758 78.37C477.298 78.97 477.568 79.76 477.568 80.74C477.568 82.1 477.028 83.18 475.948 83.98C474.888 84.78 473.468 85.18 471.688 85.18ZM497.407 69.52C498.927 69.52 500.127 69.98 501.007 70.9C501.887 71.8 502.327 73.06 502.327 74.68V84.7C502.327 84.9 502.227 85 502.027 85H499.777C499.577 85 499.477 84.9 499.477 84.7V75.28C499.477 74.28 499.197 73.49 498.637 72.91C498.097 72.31 497.367 72.01 496.447 72.01C495.527 72.01 494.777 72.3 494.197 72.88C493.617 73.46 493.327 74.24 493.327 75.22V84.7C493.327 84.9 493.227 85 493.027 85H490.777C490.577 85 490.477 84.9 490.477 84.7V75.28C490.477 74.28 490.197 73.49 489.637 72.91C489.097 72.31 488.367 72.01 487.447 72.01C486.527 72.01 485.787 72.3 485.227 72.88C484.687 73.46 484.417 74.24 484.417 75.22V84.7C484.417 84.9 484.317 85 484.117 85H481.837C481.637 85 481.537 84.9 481.537 84.7V70.03C481.537 69.83 481.637 69.73 481.837 69.73H484.117C484.317 69.73 484.417 69.83 484.417 70.03V71.05C484.417 71.09 484.427 71.12 484.447 71.14C484.487 71.16 484.527 71.15 484.567 71.11C485.447 70.05 486.727 69.52 488.407 69.52C489.427 69.52 490.297 69.72 491.017 70.12C491.737 70.5 492.297 71.07 492.697 71.83C492.757 71.91 492.817 71.91 492.877 71.83C493.357 71.05 493.987 70.47 494.767 70.09C495.567 69.71 496.447 69.52 497.407 69.52ZM512.502 69.49C513.722 69.49 514.782 69.71 515.682 70.15C516.602 70.57 517.302 71.17 517.782 71.95C518.282 72.71 518.532 73.58 518.532 74.56V84.7C518.532 84.9 518.432 85 518.232 85H515.952C515.752 85 515.652 84.9 515.652 84.7V83.62C515.652 83.52 515.602 83.5 515.502 83.56C514.982 84.1 514.342 84.52 513.582 84.82C512.842 85.1 512.012 85.24 511.092 85.24C509.612 85.24 508.382 84.87 507.402 84.13C506.442 83.37 505.962 82.23 505.962 80.71C505.962 79.15 506.502 77.93 507.582 77.05C508.682 76.15 510.212 75.7 512.172 75.7H515.532C515.612 75.7 515.652 75.66 515.652 75.58V74.77C515.652 73.89 515.392 73.21 514.872 72.73C514.372 72.23 513.602 71.98 512.562 71.98C511.722 71.98 511.032 72.15 510.492 72.49C509.972 72.81 509.652 73.25 509.532 73.81C509.472 74.01 509.352 74.1 509.172 74.08L506.742 73.75C506.542 73.71 506.452 73.63 506.472 73.51C506.632 72.33 507.262 71.37 508.362 70.63C509.462 69.87 510.842 69.49 512.502 69.49ZM511.722 82.81C512.782 82.81 513.702 82.53 514.482 81.97C515.262 81.41 515.652 80.7 515.652 79.84V78.07C515.652 77.99 515.612 77.95 515.532 77.95H512.712C511.532 77.95 510.592 78.18 509.892 78.64C509.192 79.1 508.842 79.74 508.842 80.56C508.842 81.3 509.102 81.86 509.622 82.24C510.162 82.62 510.862 82.81 511.722 82.81ZM534.996 85.18C533.796 85.18 532.736 85 531.816 84.64C530.916 84.28 530.216 83.79 529.716 83.17C529.216 82.53 528.966 81.83 528.966 81.07V80.74C528.966 80.54 529.066 80.44 529.266 80.44H531.426C531.626 80.44 531.726 80.54 531.726 80.74V80.89C531.726 81.45 532.026 81.94 532.626 82.36C533.246 82.78 534.026 82.99 534.966 82.99C535.866 82.99 536.596 82.8 537.156 82.42C537.716 82.02 537.996 81.52 537.996 80.92C537.996 80.34 537.736 79.91 537.216 79.63C536.696 79.33 535.856 79.02 534.696 78.7C533.556 78.38 532.596 78.06 531.816 77.74C531.056 77.4 530.406 76.93 529.866 76.33C529.346 75.71 529.086 74.92 529.086 73.96C529.086 72.62 529.606 71.56 530.646 70.78C531.706 69.98 533.106 69.58 534.846 69.58C536.006 69.58 537.026 69.77 537.906 70.15C538.806 70.51 539.496 71.02 539.976 71.68C540.456 72.34 540.696 73.08 540.696 73.9V73.99C540.696 74.19 540.596 74.29 540.396 74.29H538.296C538.096 74.29 537.996 74.19 537.996 73.99V73.9C537.996 73.32 537.706 72.84 537.126 72.46C536.566 72.06 535.796 71.86 534.816 71.86C533.936 71.86 533.216 72.03 532.656 72.37C532.116 72.71 531.846 73.17 531.846 73.75C531.846 74.33 532.106 74.77 532.626 75.07C533.166 75.37 534.026 75.69 535.206 76.03C536.366 76.35 537.326 76.67 538.086 76.99C538.866 77.29 539.526 77.75 540.066 78.37C540.606 78.97 540.876 79.76 540.876 80.74C540.876 82.1 540.336 83.18 539.256 83.98C538.196 84.78 536.776 85.18 534.996 85.18ZM550.965 85.24C549.445 85.24 548.145 84.86 547.065 84.1C545.985 83.32 545.245 82.27 544.845 80.95C544.545 80.03 544.395 78.82 544.395 77.32C544.395 75.94 544.545 74.73 544.845 73.69C545.245 72.41 545.985 71.39 547.065 70.63C548.165 69.87 549.465 69.49 550.965 69.49C552.465 69.49 553.775 69.87 554.895 70.63C556.015 71.39 556.745 72.35 557.085 73.51C557.205 73.83 557.285 74.16 557.325 74.5C557.325 74.66 557.235 74.76 557.055 74.8L554.805 75.13H554.745C554.605 75.13 554.505 75.04 554.445 74.86L554.355 74.38C554.195 73.7 553.805 73.13 553.185 72.67C552.565 72.21 551.815 71.98 550.935 71.98C550.075 71.98 549.345 72.21 548.745 72.67C548.145 73.13 547.755 73.74 547.575 74.5C547.395 75.22 547.305 76.17 547.305 77.35C547.305 78.51 547.395 79.45 547.575 80.17C547.775 80.97 548.165 81.6 548.745 82.06C549.345 82.52 550.075 82.75 550.935 82.75C551.815 82.75 552.565 82.52 553.185 82.06C553.825 81.6 554.225 81 554.385 80.26C554.405 80.24 554.405 80.22 554.385 80.2C554.385 80.16 554.395 80.13 554.415 80.11V79.99C554.475 79.83 554.585 79.77 554.745 79.81L556.995 80.17C557.155 80.21 557.235 80.29 557.235 80.41V80.53C557.235 80.71 557.185 80.93 557.085 81.19C556.745 82.41 556.015 83.39 554.895 84.13C553.775 84.87 552.465 85.24 550.965 85.24ZM568.046 69.52C569.686 69.52 570.986 70 571.946 70.96C572.906 71.9 573.386 73.18 573.386 74.8V84.7C573.386 84.9 573.286 85 573.086 85H570.806C570.606 85 570.506 84.9 570.506 84.7V75.37C570.506 74.37 570.216 73.56 569.636 72.94C569.056 72.32 568.286 72.01 567.326 72.01C566.386 72.01 565.616 72.32 565.016 72.94C564.416 73.56 564.116 74.36 564.116 75.34V84.7C564.116 84.9 564.016 85 563.816 85H561.536C561.336 85 561.236 84.9 561.236 84.7V64.3C561.236 64.1 561.336 64 561.536 64H563.816C564.016 64 564.116 64.1 564.116 64.3V71.11C564.116 71.15 564.126 71.18 564.146 71.2C564.186 71.22 564.216 71.21 564.236 71.17C565.096 70.07 566.366 69.52 568.046 69.52ZM590.28 75.46C590.36 76.28 590.39 77.2 590.37 78.22C590.37 78.42 590.27 78.52 590.07 78.52H580.5C580.42 78.52 580.38 78.56 580.38 78.64C580.38 79.32 580.44 79.84 580.56 80.2C580.78 81 581.22 81.63 581.88 82.09C582.56 82.53 583.41 82.75 584.43 82.75C585.91 82.75 587.05 82.14 587.85 80.92C587.95 80.72 588.08 80.69 588.24 80.83L589.95 81.97C590.09 82.09 590.12 82.22 590.04 82.36C589.48 83.26 588.68 83.97 587.64 84.49C586.62 85.01 585.46 85.27 584.16 85.27C582.7 85.27 581.47 84.95 580.47 84.31C579.47 83.67 578.72 82.76 578.22 81.58C577.74 80.4 577.5 78.97 577.5 77.29C577.5 75.83 577.61 74.72 577.83 73.96C578.19 72.58 578.91 71.49 579.99 70.69C581.07 69.89 582.38 69.49 583.92 69.49C585.94 69.49 587.45 70 588.45 71.02C589.45 72.02 590.06 73.5 590.28 75.46ZM583.92 71.98C583.06 71.98 582.35 72.2 581.79 72.64C581.23 73.06 580.85 73.63 580.65 74.35C580.51 74.79 580.42 75.35 580.38 76.03C580.38 76.11 580.42 76.15 580.5 76.15H587.37C587.45 76.15 587.49 76.11 587.49 76.03C587.45 75.37 587.39 74.88 587.31 74.56C587.11 73.78 586.71 73.16 586.11 72.7C585.53 72.22 584.8 71.98 583.92 71.98ZM610.474 69.52C611.994 69.52 613.194 69.98 614.074 70.9C614.954 71.8 615.394 73.06 615.394 74.68V84.7C615.394 84.9 615.294 85 615.094 85H612.844C612.644 85 612.544 84.9 612.544 84.7V75.28C612.544 74.28 612.264 73.49 611.704 72.91C611.164 72.31 610.434 72.01 609.514 72.01C608.594 72.01 607.844 72.3 607.264 72.88C606.684 73.46 606.394 74.24 606.394 75.22V84.7C606.394 84.9 606.294 85 606.094 85H603.844C603.644 85 603.544 84.9 603.544 84.7V75.28C603.544 74.28 603.264 73.49 602.704 72.91C602.164 72.31 601.434 72.01 600.514 72.01C599.594 72.01 598.854 72.3 598.294 72.88C597.754 73.46 597.484 74.24 597.484 75.22V84.7C597.484 84.9 597.384 85 597.184 85H594.904C594.704 85 594.604 84.9 594.604 84.7V70.03C594.604 69.83 594.704 69.73 594.904 69.73H597.184C597.384 69.73 597.484 69.83 597.484 70.03V71.05C597.484 71.09 597.494 71.12 597.514 71.14C597.554 71.16 597.594 71.15 597.634 71.11C598.514 70.05 599.794 69.52 601.474 69.52C602.494 69.52 603.364 69.72 604.084 70.12C604.804 70.5 605.364 71.07 605.764 71.83C605.824 71.91 605.884 71.91 605.944 71.83C606.424 71.05 607.054 70.47 607.834 70.09C608.634 69.71 609.514 69.52 610.474 69.52ZM625.569 69.49C626.789 69.49 627.849 69.71 628.749 70.15C629.669 70.57 630.369 71.17 630.849 71.95C631.349 72.71 631.599 73.58 631.599 74.56V84.7C631.599 84.9 631.499 85 631.299 85H629.019C628.819 85 628.719 84.9 628.719 84.7V83.62C628.719 83.52 628.669 83.5 628.569 83.56C628.049 84.1 627.409 84.52 626.649 84.82C625.909 85.1 625.079 85.24 624.159 85.24C622.679 85.24 621.449 84.87 620.469 84.13C619.509 83.37 619.029 82.23 619.029 80.71C619.029 79.15 619.569 77.93 620.649 77.05C621.749 76.15 623.279 75.7 625.239 75.7H628.599C628.679 75.7 628.719 75.66 628.719 75.58V74.77C628.719 73.89 628.459 73.21 627.939 72.73C627.439 72.23 626.669 71.98 625.629 71.98C624.789 71.98 624.099 72.15 623.559 72.49C623.039 72.81 622.719 73.25 622.599 73.81C622.539 74.01 622.419 74.1 622.239 74.08L619.809 73.75C619.609 73.71 619.519 73.63 619.539 73.51C619.699 72.33 620.329 71.37 621.429 70.63C622.529 69.87 623.909 69.49 625.569 69.49ZM624.789 82.81C625.849 82.81 626.769 82.53 627.549 81.97C628.329 81.41 628.719 80.7 628.719 79.84V78.07C628.719 77.99 628.679 77.95 628.599 77.95H625.779C624.599 77.95 623.659 78.18 622.959 78.64C622.259 79.1 621.909 79.74 621.909 80.56C621.909 81.3 622.169 81.86 622.689 82.24C623.229 82.62 623.929 82.81 624.789 82.81Z" fill="black"/>
<path d="M209.372 128.745C209.372 130.782 208.888 132.691 207.92 134.473C206.988 136.255 205.501 137.691 203.457 138.782C201.449 139.873 198.904 140.418 195.821 140.418H189.529V155.036H182V116.964H195.821C198.725 116.964 201.198 117.473 203.242 118.491C205.285 119.509 206.809 120.909 207.813 122.691C208.853 124.473 209.372 126.491 209.372 128.745ZM195.498 134.255C197.577 134.255 199.119 133.782 200.123 132.836C201.127 131.855 201.629 130.491 201.629 128.745C201.629 125.036 199.585 123.182 195.498 123.182H189.529V134.255H195.498Z" fill="#4338CA"/>
<path d="M251.139 155.036L242.858 140.2H239.308V155.036H231.78V116.964H245.869C248.773 116.964 251.247 117.491 253.29 118.545C255.334 119.564 256.857 120.964 257.861 122.745C258.901 124.491 259.421 126.455 259.421 128.636C259.421 131.145 258.704 133.418 257.27 135.455C255.836 137.455 253.703 138.836 250.87 139.6L259.851 155.036H251.139ZM239.308 134.473H245.6C247.644 134.473 249.167 133.982 250.171 133C251.175 131.982 251.677 130.582 251.677 128.8C251.677 127.055 251.175 125.709 250.171 124.764C249.167 123.782 247.644 123.291 245.6 123.291H239.308V134.473Z" fill="#4338CA"/>
<path d="M289.787 116.964V155.036H282.258V116.964H289.787Z" fill="#4338CA"/>
<path d="M326.122 155.5C323.505 155.5 321.139 155.045 319.024 154.136C316.944 153.227 315.295 151.918 314.076 150.209C312.857 148.5 312.23 146.482 312.194 144.155H320.26C320.368 145.718 320.906 146.955 321.874 147.864C322.878 148.773 324.24 149.227 325.961 149.227C327.718 149.227 329.098 148.809 330.102 147.973C331.106 147.1 331.607 145.973 331.607 144.591C331.607 143.464 331.267 142.536 330.586 141.809C329.904 141.082 329.044 140.518 328.004 140.118C327.001 139.682 325.602 139.209 323.81 138.7C321.372 137.973 319.382 137.264 317.841 136.573C316.335 135.845 315.026 134.773 313.915 133.355C312.839 131.9 312.302 129.973 312.302 127.573C312.302 125.318 312.857 123.355 313.969 121.682C315.08 120.009 316.64 118.736 318.647 117.864C320.655 116.955 322.949 116.5 325.531 116.5C329.403 116.5 332.54 117.464 334.942 119.391C337.379 121.282 338.724 123.936 338.975 127.355H330.693C330.622 126.045 330.066 124.973 329.026 124.136C328.022 123.264 326.678 122.827 324.993 122.827C323.523 122.827 322.34 123.209 321.444 123.973C320.583 124.736 320.153 125.845 320.153 127.3C320.153 128.318 320.476 129.173 321.121 129.864C321.802 130.518 322.627 131.064 323.595 131.5C324.598 131.9 325.997 132.373 327.789 132.918C330.227 133.645 332.217 134.373 333.758 135.1C335.3 135.827 336.627 136.918 337.738 138.373C338.849 139.827 339.405 141.736 339.405 144.1C339.405 146.136 338.885 148.027 337.846 149.773C336.806 151.518 335.282 152.918 333.275 153.973C331.267 154.991 328.883 155.5 326.122 155.5Z" fill="#4338CA"/>
<path d="M402.736 116.964V155.036H395.208V130.273L385.151 155.036H379.451L369.341 130.273V155.036H361.812V116.964H370.363L382.301 145.273L394.24 116.964H402.736Z" fill="#4338CA"/>
<path d="M465.212 149.093L448.462 112.576C448.042 111.663 447.165 111.061 446.172 111.005C445.152 110.944 444.239 111.449 443.724 112.308L425.557 142.515C424.995 143.456 425.006 144.617 425.59 145.547L434.47 159.669C434.999 160.512 435.916 161 436.869 161C437.139 161 437.411 160.961 437.678 160.88L463.454 153.053C464.244 152.813 464.889 152.24 465.227 151.48C465.565 150.719 465.558 149.849 465.212 149.093ZM461.461 150.66L439.591 157.3C438.923 157.504 438.282 156.91 438.423 156.218L446.236 117.805C446.382 117.086 447.349 116.972 447.654 117.637L462.121 149.175C462.394 149.77 462.082 150.471 461.461 150.66Z" fill="#4338CA"/>
<path d="M495.412 148.982H507.781V155.036H487.883V116.964H495.412V148.982Z" fill="#4338CA"/>
<path d="M537.716 116.964V155.036H530.188V116.964H537.716Z" fill="#4338CA"/>
<path d="M574.052 155.5C571.435 155.5 569.068 155.045 566.953 154.136C564.874 153.227 563.225 151.918 562.006 150.209C560.787 148.5 560.159 146.482 560.124 144.155H568.19C568.298 145.718 568.835 146.955 569.803 147.864C570.807 148.773 572.17 149.227 573.89 149.227C575.647 149.227 577.027 148.809 578.031 147.973C579.035 147.1 579.537 145.973 579.537 144.591C579.537 143.464 579.196 142.536 578.515 141.809C577.834 141.082 576.974 140.518 575.934 140.118C574.93 139.682 573.532 139.209 571.739 138.7C569.301 137.973 567.312 137.264 565.77 136.573C564.264 135.845 562.956 134.773 561.844 133.355C560.769 131.9 560.231 129.973 560.231 127.573C560.231 125.318 560.787 123.355 561.898 121.682C563.01 120.009 564.569 118.736 566.577 117.864C568.584 116.955 570.879 116.5 573.46 116.5C577.332 116.5 580.469 117.464 582.871 119.391C585.309 121.282 586.653 123.936 586.904 127.355H578.623C578.551 126.045 577.995 124.973 576.956 124.136C575.952 123.264 574.607 122.827 572.922 122.827C571.453 122.827 570.269 123.209 569.373 123.973C568.513 124.736 568.083 125.845 568.083 127.3C568.083 128.318 568.405 129.173 569.05 129.864C569.732 130.518 570.556 131.064 571.524 131.5C572.528 131.9 573.926 132.373 575.719 132.918C578.157 133.645 580.146 134.373 581.688 135.1C583.23 135.827 584.556 136.918 585.668 138.373C586.779 139.827 587.335 141.736 587.335 144.1C587.335 146.136 586.815 148.027 585.775 149.773C584.735 151.518 583.212 152.918 581.204 153.973C579.196 154.991 576.812 155.5 574.052 155.5Z" fill="#4338CA"/>
<path d="M617.27 123.155V132.7H629.908V138.755H617.27V148.845H631.521V155.064H609.742V116.936H631.521V123.155H617.27Z" fill="#4338CA"/>
<path d="M673.288 155.036L665.006 140.2H661.457V155.036H653.928V116.964H668.018C670.922 116.964 673.396 117.491 675.439 118.545C677.483 119.564 679.006 120.964 680.01 122.745C681.05 124.491 681.57 126.455 681.57 128.636C681.57 131.145 680.853 133.418 679.419 135.455C677.985 137.455 675.852 138.836 673.019 139.6L682 155.036H673.288ZM661.457 134.473H667.749C669.793 134.473 671.316 133.982 672.32 133C673.324 131.982 673.826 130.582 673.826 128.8C673.826 127.055 673.324 125.709 672.32 124.764C671.316 123.782 669.793 123.291 667.749 123.291H661.457V134.473Z" fill="#4338CA"/>
</g>
<defs>
<filter id="filter0_dddd" x="0" y="0" width="864" height="264" filterUnits="userSpaceOnUse" color-interpolation-filters="sRGB">
<feFlood flood-opacity="0" result="BackgroundImageFix"/>
<feColorMatrix in="SourceAlpha" type="matrix" values="0 0 0 0 0 0 0 0 0 0 0 0 0 0 0 0 0 0 127 0" result="hardAlpha"/>
<feOffset/>
<feGaussianBlur stdDeviation="0.5"/>
<feColorMatrix type="matrix" values="0 0 0 0 0 0 0 0 0 0 0 0 0 0 0 0 0 0 0.04 0"/>
<feBlend mode="normal" in2="BackgroundImageFix" result="effect1_dropShadow"/>
<feColorMatrix in="SourceAlpha" type="matrix" values="0 0 0 0 0 0 0 0 0 0 0 0 0 0 0 0 0 0 127 0" result="hardAlpha"/>
<feOffset dy="4"/>
<feGaussianBlur stdDeviation="4"/>
<feColorMatrix type="matrix" values="0 0 0 0 0 0 0 0 0 0 0 0 0 0 0 0 0 0 0.04 0"/>
<feBlend mode="normal" in2="effect1_dropShadow" result="effect2_dropShadow"/>
<feColorMatrix in="SourceAlpha" type="matrix" values="0 0 0 0 0 0 0 0 0 0 0 0 0 0 0 0 0 0 127 0" result="hardAlpha"/>
<feOffset dy="16"/>
<feGaussianBlur stdDeviation="12"/>
<feColorMatrix type="matrix" values="0 0 0 0 0 0 0 0 0 0 0 0 0 0 0 0 0 0 0.04 0"/>
<feBlend mode="normal" in2="effect2_dropShadow" result="effect3_dropShadow"/>
<feColorMatrix in="SourceAlpha" type="matrix" values="0 0 0 0 0 0 0 0 0 0 0 0 0 0 0 0 0 0 127 0" result="hardAlpha"/>
<feOffset dy="24"/>
<feGaussianBlur stdDeviation="16"/>
<feColorMatrix type="matrix" values="0 0 0 0 0 0 0 0 0 0 0 0 0 0 0 0 0 0 0.04 0"/>
<feBlend mode="normal" in2="effect3_dropShadow" result="effect4_dropShadow"/>
<feBlend mode="normal" in="SourceGraphic" in2="effect4_dropShadow" result="shape"/>
</filter>
<radialGradient id="paint0_radial" cx="0" cy="0" r="1" gradientUnits="userSpaceOnUse" gradientTransform="translate(432 -11.5) rotate(90) scale(219.5 433.919)">
<stop/>
<stop offset="1" stop-opacity="0"/>
</radialGradient>
</defs>
</svg>
