<svg width="112" height="11" viewBox="0 0 112 11" fill="none" xmlns="http://www.w3.org/2000/svg">
<path d="M6.108 3.904C6.108 4.352 6 4.772 5.784 5.164C5.576 5.556 5.244 5.872 4.788 6.112C4.34 6.352 3.772 6.472 3.084 6.472H1.68V9.688H0V1.312H3.084C3.732 1.312 4.284 1.424 4.74 1.648C5.196 1.872 5.536 2.18 5.76 2.572C5.992 2.964 6.108 3.408 6.108 3.904ZM3.012 5.116C3.476 5.116 3.82 5.012 4.044 4.804C4.268 4.588 4.38 4.288 4.38 3.904C4.38 3.088 3.924 2.68 3.012 2.68H1.68V5.116H3.012Z" fill="white"/>
<path d="M15.428 9.688L13.58 6.424H12.788V9.688H11.108V1.312H14.252C14.9 1.312 15.452 1.428 15.908 1.66C16.364 1.884 16.704 2.192 16.928 2.584C17.16 2.968 17.276 3.4 17.276 3.88C17.276 4.432 17.116 4.932 16.796 5.38C16.476 5.82 16 6.124 15.368 6.292L17.372 9.688H15.428ZM12.788 5.164H14.192C14.648 5.164 14.988 5.056 15.212 4.84C15.436 4.616 15.548 4.308 15.548 3.916C15.548 3.532 15.436 3.236 15.212 3.028C14.988 2.812 14.648 2.704 14.192 2.704H12.788V5.164Z" fill="white"/>
<path d="M24.052 1.312V9.688H22.372V1.312H24.052Z" fill="white"/>
<path d="M32.16 9.79C31.576 9.79 31.048 9.69 30.576 9.49C30.112 9.29 29.744 9.002 29.472 8.626C29.2 8.25 29.06 7.806 29.052 7.294H30.852C30.876 7.638 30.996 7.91 31.212 8.11C31.436 8.31 31.74 8.41 32.124 8.41C32.516 8.41 32.824 8.318 33.048 8.134C33.272 7.942 33.384 7.694 33.384 7.39C33.384 7.142 33.308 6.938 33.156 6.778C33.004 6.618 32.812 6.494 32.58 6.406C32.356 6.31 32.044 6.206 31.644 6.094C31.1 5.934 30.656 5.778 30.312 5.626C29.976 5.466 29.684 5.23 29.436 4.918C29.196 4.598 29.076 4.174 29.076 3.646C29.076 3.15 29.2 2.718 29.448 2.35C29.696 1.982 30.044 1.702 30.492 1.51C30.94 1.31 31.452 1.21 32.028 1.21C32.892 1.21 33.592 1.422 34.128 1.846C34.672 2.262 34.972 2.846 35.028 3.598H33.18C33.164 3.31 33.04 3.074 32.808 2.89C32.584 2.698 32.284 2.602 31.908 2.602C31.58 2.602 31.316 2.686 31.116 2.854C30.924 3.022 30.828 3.266 30.828 3.586C30.828 3.81 30.9 3.998 31.044 4.15C31.196 4.294 31.38 4.414 31.596 4.51C31.82 4.598 32.132 4.702 32.532 4.822C33.076 4.982 33.52 5.142 33.864 5.302C34.208 5.462 34.504 5.702 34.752 6.022C35 6.342 35.124 6.762 35.124 7.282C35.124 7.73 35.008 8.146 34.776 8.53C34.544 8.914 34.204 9.222 33.756 9.454C33.308 9.678 32.776 9.79 32.16 9.79Z" fill="white"/>
<path d="M49.256 1.312V9.688H47.576V4.24L45.332 9.688H44.06L41.804 4.24V9.688H40.124V1.312H42.032L44.696 7.54L47.36 1.312H49.256Z" fill="white"/>
<path d="M63.197 8.38053L59.4594 0.346723C59.3656 0.145882 59.17 0.0133773 58.9483 0.00109397C58.7209 -0.0123352 58.5171 0.098719 58.4021 0.28769L54.3484 6.93325C54.2228 7.14033 54.2253 7.39576 54.3555 7.60036L56.3371 10.7072C56.4552 10.8927 56.6598 11 56.8725 11C56.9328 11 56.9934 10.9914 57.053 10.9736L62.8048 9.25169C62.981 9.19893 63.125 9.07275 63.2004 8.90551C63.2758 8.73826 63.2744 8.54672 63.197 8.38053ZM62.3602 8.72515L57.4799 10.1861C57.3308 10.2308 57.1879 10.1002 57.2192 9.94803L58.9627 1.497C58.9953 1.33897 59.2111 1.31385 59.2792 1.4602L62.5073 8.39845C62.5682 8.52935 62.4987 8.68372 62.3602 8.72515Z" fill="white"/>
<path d="M69.936 8.356H72.696V9.688H68.256V1.312H69.936V8.356Z" fill="white"/>
<path d="M79.376 1.312V9.688H77.696V1.312H79.376Z" fill="white"/>
<path d="M87.484 9.79C86.9 9.79 86.372 9.69 85.9 9.49C85.436 9.29 85.068 9.002 84.796 8.626C84.524 8.25 84.384 7.806 84.376 7.294H86.176C86.2 7.638 86.32 7.91 86.536 8.11C86.76 8.31 87.064 8.41 87.448 8.41C87.84 8.41 88.148 8.318 88.372 8.134C88.596 7.942 88.708 7.694 88.708 7.39C88.708 7.142 88.632 6.938 88.48 6.778C88.328 6.618 88.136 6.494 87.904 6.406C87.68 6.31 87.368 6.206 86.968 6.094C86.424 5.934 85.98 5.778 85.636 5.626C85.3 5.466 85.008 5.23 84.76 4.918C84.52 4.598 84.4 4.174 84.4 3.646C84.4 3.15 84.524 2.718 84.772 2.35C85.02 1.982 85.368 1.702 85.816 1.51C86.264 1.31 86.776 1.21 87.352 1.21C88.216 1.21 88.916 1.422 89.452 1.846C89.996 2.262 90.296 2.846 90.352 3.598H88.504C88.488 3.31 88.364 3.074 88.132 2.89C87.908 2.698 87.608 2.602 87.232 2.602C86.904 2.602 86.64 2.686 86.44 2.854C86.248 3.022 86.152 3.266 86.152 3.586C86.152 3.81 86.224 3.998 86.368 4.15C86.52 4.294 86.704 4.414 86.92 4.51C87.144 4.598 87.456 4.702 87.856 4.822C88.4 4.982 88.844 5.142 89.188 5.302C89.532 5.462 89.828 5.702 90.076 6.022C90.324 6.342 90.448 6.762 90.448 7.282C90.448 7.73 90.332 8.146 90.1 8.53C89.868 8.914 89.528 9.222 89.08 9.454C88.632 9.678 88.1 9.79 87.484 9.79Z" fill="white"/>
<path d="M97.128 2.674V4.774H99.948V6.106H97.128V8.326H100.308V9.694H95.448V1.306H100.308V2.674H97.128Z" fill="white"/>
<path d="M109.628 9.688L107.78 6.424H106.988V9.688H105.308V1.312H108.452C109.1 1.312 109.652 1.428 110.108 1.66C110.564 1.884 110.904 2.192 111.128 2.584C111.36 2.968 111.476 3.4 111.476 3.88C111.476 4.432 111.316 4.932 110.996 5.38C110.676 5.82 110.2 6.124 109.568 6.292L111.572 9.688H109.628ZM106.988 5.164H108.392C108.848 5.164 109.188 5.056 109.412 4.84C109.636 4.616 109.748 4.308 109.748 3.916C109.748 3.532 109.636 3.236 109.412 3.028C109.188 2.812 108.848 2.704 108.392 2.704H106.988V5.164Z" fill="white"/>
</svg>
